<svg width="317" height="67" viewBox="0 0 317 67" fill="none" xmlns="http://www.w3.org/2000/svg">
<path d="M22.4601 27.3104H25.0712V32.2255H22.4601V29H4.08991V7.49649H6.88537V27.3104H19.6646V7.49649H22.4601V27.3104ZM29.0733 7.49649H42.9585V9.18605H31.8688V16.8966H41.3918V18.3711H31.8688V27.3104H42.9585V29H29.0733V7.49649ZM48.8124 18.3097V29H46.017V7.49649H48.8124V16.8966H61.6838V7.49649H64.4793V29H61.6838V18.3097H48.8124ZM78.2667 29H75.4713V9.18605H67.2385V7.49649H86.4995V9.18605H78.2667V29ZM92.0594 20.03V29H89.264V7.49649H96.4523C97.6401 7.49649 98.6743 7.67056 99.5549 8.01872C100.436 8.36687 101.163 8.8379 101.736 9.4318C102.33 10.0052 102.77 10.6913 103.057 11.49C103.344 12.2682 103.487 13.0874 103.487 13.9475C103.487 14.8486 103.323 15.6985 102.996 16.4972C102.668 17.2755 102.176 17.9718 101.521 18.5862C100.886 19.1801 100.087 19.6511 99.1249 19.9992C98.1623 20.3474 97.0564 20.5215 95.8072 20.5215C95.0699 20.5215 94.3941 20.4805 93.7797 20.3986C93.1653 20.2962 92.5919 20.1733 92.0594 20.03ZM92.0594 8.84814V18.7705C92.4895 18.9343 92.9708 19.0469 93.5032 19.1084C94.0357 19.1493 94.6194 19.1698 95.2542 19.1698C96.1758 19.1698 96.9643 19.0162 97.6196 18.709C98.275 18.4018 98.8177 18.0025 99.2478 17.511C99.6778 17.0195 99.985 16.4768 100.169 15.8829C100.374 15.2685 100.477 14.6643 100.477 14.0704C100.477 13.456 100.364 12.8416 100.139 12.2273C99.9338 11.5924 99.6164 11.0292 99.1863 10.5377C98.7562 10.0257 98.2135 9.61612 97.5582 9.30893C96.9028 9.00173 96.1451 8.84814 95.285 8.84814H92.0594ZM135.134 7.49649V29H132.338V9.18605H119.467V29H116.671V7.49649H135.134ZM159.427 25.0372L160.349 25.8666C160.082 26.1738 159.693 26.5322 159.181 26.9418C158.669 27.3514 158.024 27.7405 157.246 28.1091C156.488 28.4573 155.587 28.7542 154.543 29C153.519 29.2458 152.351 29.3686 151.041 29.3686C148.972 29.3686 147.191 29.0512 145.696 28.4163C144.201 27.761 142.972 26.9111 142.009 25.8666C141.047 24.8017 140.33 23.5934 139.859 22.2418C139.408 20.8696 139.183 19.4668 139.183 18.0332C139.183 16.3744 139.47 14.8794 140.043 13.5482C140.617 12.1965 141.426 11.0497 142.47 10.1076C143.515 9.14509 144.764 8.40783 146.218 7.89584C147.692 7.38385 149.32 7.12786 151.102 7.12786C152.331 7.12786 153.427 7.25073 154.389 7.49649C155.352 7.74224 156.191 8.08015 156.908 8.51022C157.625 8.94029 158.219 9.45228 158.69 10.0462C159.181 10.6401 159.581 11.2852 159.888 11.9815H157.615C157.471 11.5514 157.215 11.1316 156.847 10.722C156.499 10.2919 156.038 9.91307 155.464 9.5854C154.911 9.25773 154.266 8.99149 153.529 8.7867C152.812 8.5819 152.014 8.4795 151.133 8.4795C149.843 8.4795 148.645 8.71502 147.539 9.18605C146.453 9.65708 145.511 10.3124 144.713 11.1521C143.914 11.9917 143.289 12.9952 142.839 14.1626C142.409 15.3094 142.194 16.5792 142.194 17.9718C142.194 19.2825 142.398 20.542 142.808 21.7502C143.238 22.9585 143.863 24.0235 144.682 24.9451C145.501 25.8666 146.525 26.6039 147.754 27.1568C148.983 27.7098 150.396 27.9863 151.993 27.9863C154.86 27.9863 157.338 27.0032 159.427 25.0372ZM166.224 26.481L178.972 7.49649H181.768V29H178.972V9.80044L166.224 29H163.428V7.49649H166.224V26.481ZM187.97 7.49649L194.544 15.9443H194.698L201.18 7.49649H202.808L195.466 17.1116L204.774 29H201.303L193.807 19.3849H193.684L186.342 29H184.683L192.916 18.279L184.53 7.49649H187.97ZM205.395 18.2482C205.395 17.0809 205.61 15.8419 206.04 14.5312C206.491 13.2205 207.187 12.0225 208.129 10.937C209.071 9.83115 210.269 8.91981 211.723 8.20303C213.177 7.48625 214.918 7.12786 216.945 7.12786C218.993 7.12786 220.765 7.49649 222.26 8.23375C223.775 8.95053 225.025 9.86187 226.008 10.9678C226.991 12.0737 227.718 13.282 228.189 14.5926C228.66 15.8829 228.895 17.1014 228.895 18.2482C228.895 19.006 228.783 19.8047 228.557 20.6443C228.353 21.484 228.035 22.3237 227.605 23.1633C227.195 23.9825 226.663 24.771 226.008 25.5287C225.352 26.266 224.574 26.9213 223.673 27.4948C222.792 28.0682 221.789 28.529 220.662 28.8771C219.557 29.2048 218.318 29.3686 216.945 29.3686C214.918 29.3686 213.177 29.0102 211.723 28.2935C210.269 27.5562 209.071 26.6346 208.129 25.5287C207.187 24.4228 206.491 23.2248 206.04 21.9346C205.61 20.6239 205.395 19.3951 205.395 18.2482ZM208.405 18.2482C208.405 19.6818 208.62 21.0027 209.051 22.211C209.501 23.3988 210.105 24.4228 210.863 25.283C211.641 26.1431 212.553 26.8189 213.597 27.3104C214.641 27.7815 215.778 28.017 217.007 28.017C218.215 28.017 219.352 27.7815 220.417 27.3104C221.502 26.8189 222.444 26.1431 223.243 25.283C224.062 24.4228 224.707 23.3988 225.178 22.211C225.649 21.0027 225.885 19.6818 225.885 18.2482C225.885 16.8147 225.649 15.504 225.178 14.3162C224.707 13.1079 224.062 12.0737 223.243 11.2135C222.444 10.3534 221.502 9.6878 220.417 9.21677C219.352 8.72526 218.215 8.4795 217.007 8.4795C215.778 8.4795 214.641 8.72526 213.597 9.21677C212.553 9.6878 211.641 10.3534 210.863 11.2135C210.105 12.0737 209.501 13.1079 209.051 14.3162C208.62 15.504 208.405 16.8147 208.405 18.2482ZM242.91 7.49649L252.249 29H249.208L241.436 10.937H241.313L235.323 26.1431C234.913 27.1876 234.442 27.9863 233.91 28.5392C233.398 29.0922 232.814 29.3686 232.159 29.3686C231.749 29.3686 231.339 29.3379 230.93 29.2765C230.541 29.215 230.172 29.1229 229.824 29L230.653 26.9111C230.858 27.0135 231.083 27.1364 231.329 27.2797C231.575 27.4231 231.831 27.4948 232.097 27.4948C232.773 27.4948 233.265 27.2183 233.572 26.6653C233.899 26.1124 234.237 25.3751 234.585 24.4535L241.221 7.49649H242.91ZM253.172 18.2482C253.172 17.0809 253.387 15.8419 253.817 14.5312C254.268 13.2205 254.964 12.0225 255.906 10.937C256.848 9.83115 258.046 8.91981 259.5 8.20303C260.954 7.48625 262.695 7.12786 264.722 7.12786C266.77 7.12786 268.542 7.49649 270.037 8.23375C271.552 8.95053 272.801 9.86187 273.785 10.9678C274.768 12.0737 275.495 13.282 275.966 14.5926C276.437 15.8829 276.672 17.1014 276.672 18.2482C276.672 19.006 276.559 19.8047 276.334 20.6443C276.129 21.484 275.812 22.3237 275.382 23.1633C274.972 23.9825 274.44 24.771 273.785 25.5287C273.129 26.266 272.351 26.9213 271.45 27.4948C270.569 28.0682 269.566 28.529 268.439 28.8771C267.333 29.2048 266.094 29.3686 264.722 29.3686C262.695 29.3686 260.954 29.0102 259.5 28.2935C258.046 27.5562 256.848 26.6346 255.906 25.5287C254.964 24.4228 254.268 23.2248 253.817 21.9346C253.387 20.6239 253.172 19.3951 253.172 18.2482ZM256.182 18.2482C256.182 19.6818 256.397 21.0027 256.827 22.211C257.278 23.3988 257.882 24.4228 258.64 25.283C259.418 26.1431 260.329 26.8189 261.374 27.3104C262.418 27.7815 263.555 28.017 264.784 28.017C265.992 28.017 267.129 27.7815 268.194 27.3104C269.279 26.8189 270.221 26.1431 271.02 25.283C271.839 24.4228 272.484 23.3988 272.955 22.211C273.426 21.0027 273.662 19.6818 273.662 18.2482C273.662 16.8147 273.426 15.504 272.955 14.3162C272.484 13.1079 271.839 12.0737 271.02 11.2135C270.221 10.3534 269.279 9.6878 268.194 9.21677C267.129 8.72526 265.992 8.4795 264.784 8.4795C263.555 8.4795 262.418 8.72526 261.374 9.21677C260.329 9.6878 259.418 10.3534 258.64 11.2135C257.882 12.0737 257.278 13.1079 256.827 14.3162C256.397 15.504 256.182 16.8147 256.182 18.2482ZM280.366 7.49649H293.483V9.18605H283.161V29H280.366V7.49649ZM297.788 7.49649H300.584V29H297.788V7.49649ZM308.882 7.49649H311.677V29H308.882V7.49649ZM306.486 2.64284C306.486 2.19229 306.65 1.80318 306.977 1.4755C307.305 1.14783 307.694 0.983994 308.145 0.983994C308.595 0.983994 308.984 1.14783 309.312 1.4755C309.64 1.80318 309.803 2.19229 309.803 2.64284C309.803 3.09339 309.64 3.4825 309.312 3.81017C308.984 4.13784 308.595 4.30168 308.145 4.30168C307.694 4.30168 307.305 4.13784 306.977 3.81017C306.65 3.4825 306.486 3.09339 306.486 2.64284ZM310.725 2.64284C310.725 2.19229 310.889 1.80318 311.216 1.4755C311.544 1.14783 311.933 0.983994 312.384 0.983994C312.834 0.983994 313.223 1.14783 313.551 1.4755C313.879 1.80318 314.043 2.19229 314.043 2.64284C314.043 3.09339 313.879 3.4825 313.551 3.81017C313.223 4.13784 312.834 4.30168 312.384 4.30168C311.933 4.30168 311.544 4.13784 311.216 3.81017C310.889 3.4825 310.725 3.09339 310.725 2.64284Z" fill="white"/>
<path d="M19.2712 55.6531L20.0847 56.3853C19.8497 56.6565 19.5062 56.9729 19.0542 57.3344C18.6023 57.696 18.0328 58.0395 17.3458 58.3649C16.6769 58.6723 15.8814 58.9344 14.9594 59.1514C14.0554 59.3683 13.0249 59.4768 11.8679 59.4768C10.0419 59.4768 8.46908 59.1966 7.14933 58.6361C5.82958 58.0576 4.74485 57.3073 3.89514 56.3853C3.04544 55.4452 2.41268 54.3786 1.99687 53.1854C1.59913 51.9741 1.40027 50.7357 1.40027 49.4702C1.40027 48.0058 1.65337 46.686 2.15958 45.5109C2.66578 44.3177 3.3799 43.3053 4.30192 42.4737C5.22394 41.624 6.32674 40.9731 7.61034 40.5212C8.91201 40.0692 10.3493 39.8432 11.9221 39.8432C13.0069 39.8432 13.9741 39.9517 14.8238 40.1686C15.6735 40.3856 16.4147 40.6839 17.0475 41.0635C17.6802 41.4432 18.2045 41.8951 18.6203 42.4194C19.0542 42.9437 19.4068 43.5132 19.6779 44.1279H17.6712C17.5446 43.7482 17.3187 43.3776 16.9932 43.016C16.6859 42.6364 16.2791 42.3019 15.7729 42.0127C15.2848 41.7234 14.7153 41.4884 14.0645 41.3076C13.4317 41.1268 12.7266 41.0364 11.9493 41.0364C10.8103 41.0364 9.75268 41.2443 8.77642 41.6601C7.81825 42.0759 6.98662 42.6545 6.28155 43.3957C5.57647 44.1369 5.02507 45.0228 4.62734 46.0533C4.24768 47.0657 4.05785 48.1866 4.05785 49.4159C4.05785 50.573 4.23864 51.6848 4.60022 52.7515C4.97987 53.8181 5.53128 54.7582 6.25443 55.5718C6.97758 56.3853 7.88152 57.0361 8.96625 57.5243C10.051 58.0124 11.2984 58.2565 12.7086 58.2565C15.2396 58.2565 17.4271 57.3887 19.2712 55.6531ZM33.0686 53.565H23.7128L21.3264 59.1514H20.079L28.106 40.1686H29.4619L38.3024 59.1514H35.672L33.0686 53.565ZM32.4991 52.3447L28.2416 43.2059H28.1331L24.2281 52.3447H32.4991ZM42.8697 40.1686L51.5747 56.4667H51.6832L60.4695 40.1686H62.3406V59.1514H59.8729V43.7753H59.7644L51.195 59.4768H50.7069L42.3274 43.6669H42.2189V59.1514H41.0257V40.1686H42.8697ZM65.6048 49.66C65.6048 48.6295 65.7946 47.5357 66.1742 46.3787C66.572 45.2216 67.1866 44.164 68.0183 43.2059C68.8499 42.2296 69.9075 41.4251 71.1911 40.7923C72.4747 40.1596 74.0114 39.8432 75.8012 39.8432C77.6091 39.8432 79.1729 40.1686 80.4927 40.8195C81.8305 41.4522 82.9333 42.2567 83.8011 43.233C84.6689 44.2092 85.3107 45.2759 85.7265 46.4329C86.1423 47.5719 86.3502 48.6476 86.3502 49.66C86.3502 50.3289 86.2508 51.034 86.0519 51.7752C85.8711 52.5164 85.5909 53.2577 85.2112 53.9989C84.8496 54.7221 84.3796 55.4181 83.8011 56.087C83.2225 56.7378 82.5356 57.3164 81.7401 57.8226C80.9627 58.3288 80.0768 58.7356 79.0825 59.0429C78.1062 59.3322 77.0125 59.4768 75.8012 59.4768C74.0114 59.4768 72.4747 59.1604 71.1911 58.5276C69.9075 57.8768 68.8499 57.0633 68.0183 56.087C67.1866 55.1108 66.572 54.0531 66.1742 52.9142C65.7946 51.7571 65.6048 50.6724 65.6048 49.66ZM68.2623 49.66C68.2623 50.9255 68.4522 52.0916 68.8318 53.1582C69.2296 54.2068 69.7629 55.1108 70.4318 55.8701C71.1188 56.6294 71.9233 57.226 72.8453 57.6599C73.7673 58.0757 74.7707 58.2836 75.8554 58.2836C76.9221 58.2836 77.9255 58.0757 78.8656 57.6599C79.8237 57.226 80.6554 56.6294 81.3604 55.8701C82.0836 55.1108 82.6531 54.2068 83.0689 53.1582C83.4847 52.0916 83.6926 50.9255 83.6926 49.66C83.6926 48.3945 83.4847 47.2374 83.0689 46.1889C82.6531 45.1222 82.0836 44.2092 81.3604 43.4499C80.6554 42.6906 79.8237 42.103 78.8656 41.6872C77.9255 41.2533 76.9221 41.0364 75.8554 41.0364C74.7707 41.0364 73.7673 41.2533 72.8453 41.6872C71.9233 42.103 71.1188 42.6906 70.4318 43.4499C69.7629 44.2092 69.2296 45.1222 68.8318 46.1889C68.4522 47.2374 68.2623 48.3945 68.2623 49.66ZM90.0717 40.1686L96.8513 51.1786H96.9598L102.031 40.1686H103.441L95.6581 57.0361C95.405 57.5604 95.1428 57.9853 94.8717 58.3107C94.6005 58.618 94.3203 58.8621 94.031 59.0429C93.7598 59.2237 93.4705 59.3412 93.1632 59.3954C92.8739 59.4497 92.5937 59.4768 92.3225 59.4768C91.7079 59.4768 91.1474 59.3774 90.6412 59.1785C90.1531 58.9977 89.7825 58.7988 89.5294 58.5819L90.6683 56.0599C90.9034 56.3672 91.2017 56.6565 91.5632 56.9277C91.9248 57.1989 92.3225 57.3344 92.7564 57.3344C93.335 57.3344 93.7508 57.1989 94.0039 56.9277C94.2751 56.6565 94.501 56.3401 94.6818 55.9785L95.6581 53.9176L87.1701 40.1686H90.0717ZM122.455 55.6531L123.269 56.3853C123.034 56.6565 122.69 56.9729 122.238 57.3344C121.786 57.696 121.217 58.0395 120.53 58.3649C119.861 58.6723 119.065 58.9344 118.143 59.1514C117.239 59.3683 116.209 59.4768 115.052 59.4768C113.226 59.4768 111.653 59.1966 110.333 58.6361C109.014 58.0576 107.929 57.3073 107.079 56.3853C106.229 55.4452 105.597 54.3786 105.181 53.1854C104.783 51.9741 104.584 50.7357 104.584 49.4702C104.584 48.0058 104.837 46.686 105.344 45.5109C105.85 44.3177 106.564 43.3053 107.486 42.4737C108.408 41.624 109.511 40.9731 110.794 40.5212C112.096 40.0692 113.533 39.8432 115.106 39.8432C116.191 39.8432 117.158 39.9517 118.008 40.1686C118.857 40.3856 119.599 40.6839 120.231 41.0635C120.864 41.4432 121.388 41.8951 121.804 42.4194C122.238 42.9437 122.591 43.5132 122.862 44.1279H120.855C120.729 43.7482 120.503 43.3776 120.177 43.016C119.87 42.6364 119.463 42.3019 118.957 42.0127C118.469 41.7234 117.899 41.4884 117.248 41.3076C116.616 41.1268 115.911 41.0364 115.133 41.0364C113.994 41.0364 112.937 41.2443 111.96 41.6601C111.002 42.0759 110.171 42.6545 109.465 43.3957C108.76 44.1369 108.209 45.0228 107.811 46.0533C107.432 47.0657 107.242 48.1866 107.242 49.4159C107.242 50.573 107.423 51.6848 107.784 52.7515C108.164 53.8181 108.715 54.7582 109.438 55.5718C110.162 56.3853 111.065 57.0361 112.15 57.5243C113.235 58.0124 114.482 58.2565 115.893 58.2565C118.424 58.2565 120.611 57.3887 122.455 55.6531ZM125.987 59.1514V40.1686H132.767C133.707 40.1686 134.52 40.3132 135.207 40.6025C135.913 40.8737 136.482 41.2262 136.916 41.6601C137.368 42.094 137.702 42.5731 137.919 43.0974C138.136 43.6217 138.245 44.1369 138.245 44.6431C138.245 45.2216 138.118 45.773 137.865 46.2973C137.612 46.8035 137.268 47.2555 136.835 47.6532C136.419 48.0329 135.931 48.3493 135.37 48.6024C134.81 48.8374 134.213 48.9549 133.58 48.9549V49.0634C133.978 49.0815 134.502 49.1447 135.153 49.2532C135.804 49.3617 136.437 49.5786 137.051 49.9041C137.666 50.2295 138.19 50.6995 138.624 51.3142C139.076 51.9289 139.302 52.7515 139.302 53.782C139.302 54.4328 139.185 55.0836 138.95 55.7345C138.733 56.3672 138.371 56.9367 137.865 57.4429C137.359 57.9491 136.69 58.3649 135.858 58.6904C135.027 58.9977 134.005 59.1514 132.794 59.1514H125.987ZM128.455 57.9582H132.387C132.966 57.9582 133.508 57.8768 134.014 57.7141C134.539 57.5333 134.991 57.2712 135.37 56.9277C135.75 56.5842 136.048 56.1684 136.265 55.6802C136.5 55.1921 136.618 54.6317 136.618 53.9989C136.618 53.4204 136.509 52.869 136.292 52.3447C136.093 51.8204 135.777 51.3594 135.343 50.9617C134.927 50.5639 134.394 50.2476 133.743 50.0125C133.092 49.7775 132.324 49.66 131.438 49.66H128.455V57.9582ZM128.455 48.4668H131.709C132.252 48.4668 132.758 48.3764 133.228 48.1956C133.716 48.0148 134.141 47.7617 134.502 47.4363C134.882 47.1109 135.171 46.7222 135.37 46.2702C135.587 45.8182 135.696 45.3301 135.696 44.8058C135.696 44.39 135.623 43.9742 135.479 43.5584C135.334 43.1426 135.099 42.772 134.774 42.4465C134.466 42.1211 134.059 41.859 133.553 41.6601C133.065 41.4613 132.469 41.3618 131.763 41.3618H128.455V48.4668ZM143.089 40.1686H145.556V59.1514H143.089V40.1686ZM160.367 40.1686L167.878 57.8768H170.536V61.9988H168.231V59.1514H151.689V61.9988H149.357V57.8768H151.906L158.712 40.1686H160.367ZM165.275 57.8768L158.984 43.1245H158.875L153.18 57.8768H165.275ZM171.345 49.66C171.345 48.6295 171.534 47.5357 171.914 46.3787C172.312 45.2216 172.926 44.164 173.758 43.2059C174.59 42.2296 175.647 41.4251 176.931 40.7923C178.215 40.1596 179.751 39.8432 181.541 39.8432C183.349 39.8432 184.913 40.1686 186.232 40.8195C187.57 41.4522 188.673 42.2567 189.541 43.233C190.409 44.2092 191.05 45.2759 191.466 46.4329C191.882 47.5719 192.09 48.6476 192.09 49.66C192.09 50.3289 191.991 51.034 191.792 51.7752C191.611 52.5164 191.331 53.2577 190.951 53.9989C190.589 54.7221 190.119 55.4181 189.541 56.087C188.962 56.7378 188.275 57.3164 187.48 57.8226C186.703 58.3288 185.817 58.7356 184.822 59.0429C183.846 59.3322 182.752 59.4768 181.541 59.4768C179.751 59.4768 178.215 59.1604 176.931 58.5276C175.647 57.8768 174.59 57.0633 173.758 56.087C172.926 55.1108 172.312 54.0531 171.914 52.9142C171.534 51.7571 171.345 50.6724 171.345 49.66ZM174.002 49.66C174.002 50.9255 174.192 52.0916 174.572 53.1582C174.969 54.2068 175.503 55.1108 176.172 55.8701C176.859 56.6294 177.663 57.226 178.585 57.6599C179.507 58.0757 180.511 58.2836 181.595 58.2836C182.662 58.2836 183.665 58.0757 184.605 57.6599C185.564 57.226 186.395 56.6294 187.1 55.8701C187.823 55.1108 188.393 54.2068 188.809 53.1582C189.225 52.0916 189.432 50.9255 189.432 49.66C189.432 48.3945 189.225 47.2374 188.809 46.1889C188.393 45.1222 187.823 44.2092 187.1 43.4499C186.395 42.6906 185.564 42.103 184.605 41.6872C183.665 41.2533 182.662 41.0364 181.595 41.0364C180.511 41.0364 179.507 41.2533 178.585 41.6872C177.663 42.103 176.859 42.6906 176.172 43.4499C175.503 44.2092 174.969 45.1222 174.572 46.1889C174.192 47.2374 174.002 48.3945 174.002 49.66ZM197.195 40.1686L205.9 56.4667H206.008L214.794 40.1686H216.665V59.1514H214.198V43.7753H214.089L205.52 59.4768H205.032L196.652 43.6669H196.544V59.1514H195.351V40.1686H197.195ZM230.94 40.1686L239.184 59.1514H236.499L229.638 43.2059H229.529L224.241 56.6294C223.88 57.5514 223.464 58.2565 222.994 58.7446C222.542 59.2327 222.027 59.4768 221.448 59.4768C221.087 59.4768 220.725 59.4497 220.364 59.3954C220.02 59.3412 219.695 59.2598 219.387 59.1514L220.119 57.3073C220.3 57.3977 220.499 57.5062 220.716 57.6327C220.933 57.7593 221.159 57.8226 221.394 57.8226C221.991 57.8226 222.425 57.5785 222.696 57.0904C222.985 56.6023 223.283 55.9514 223.591 55.1379L229.448 40.1686H230.94ZM241.896 40.1686H254.154V41.6601H244.364V48.4668H252.771V49.7685H244.364V57.6599H254.154V59.1514H241.896V40.1686ZM259.322 49.7142V59.1514H256.854V40.1686H259.322V48.4668H270.684V40.1686H273.152V59.1514H270.684V49.7142H259.322ZM280.767 49.7142V59.1514H278.299V40.1686H280.767V48.4668H292.13V40.1686H294.598V59.1514H292.13V49.7142H280.767ZM312.708 40.1686V59.1514H310.24V50.7718H309.047C308.54 50.7718 308.116 50.817 307.772 50.9074C307.447 50.9978 307.148 51.1515 306.877 51.3684C306.606 51.5854 306.353 51.8656 306.118 52.2091C305.883 52.5526 305.603 52.9775 305.277 53.4837L303.135 56.6565C302.864 57.0723 302.593 57.452 302.321 57.7955C302.068 58.139 301.788 58.4373 301.481 58.6904C301.173 58.9254 300.821 59.1152 300.423 59.2598C300.043 59.4045 299.582 59.4768 299.04 59.4768C298.642 59.4768 298.317 59.4587 298.064 59.4225C297.811 59.3864 297.558 59.296 297.304 59.1514V58.148C297.395 58.1661 297.485 58.1842 297.576 58.2022C297.666 58.2022 297.756 58.2022 297.847 58.2022C298.226 58.2022 298.561 58.148 298.85 58.0395C299.139 57.931 299.411 57.7774 299.664 57.5785C299.917 57.3616 300.161 57.1085 300.396 56.8192C300.631 56.5119 300.875 56.1684 301.128 55.7887C301.887 54.6859 302.475 53.8091 302.891 53.1582C303.307 52.4893 303.632 51.9741 303.867 51.6125C304.12 51.2509 304.319 50.9888 304.464 50.8261C304.626 50.6634 304.816 50.5278 305.033 50.4193L305.304 50.2837V50.1752C304.437 50.121 303.686 49.9312 303.054 49.6058C302.439 49.2803 301.933 48.8736 301.535 48.3854C301.137 47.8973 300.848 47.373 300.667 46.8126C300.486 46.2341 300.396 45.6736 300.396 45.1313C300.396 44.6431 300.486 44.1098 300.667 43.5313C300.866 42.9528 301.191 42.4194 301.643 41.9313C302.113 41.4251 302.746 41.0093 303.542 40.6839C304.337 40.3404 305.34 40.1686 306.552 40.1686H312.708ZM310.24 41.3618H307.501C306.814 41.3618 306.19 41.4613 305.63 41.6601C305.087 41.859 304.617 42.1392 304.22 42.5008C303.822 42.8443 303.515 43.2601 303.298 43.7482C303.099 44.2364 302.999 44.7697 302.999 45.3482C302.999 45.8363 303.09 46.3335 303.27 46.8397C303.469 47.3278 303.759 47.7798 304.138 48.1956C304.518 48.5933 304.979 48.9188 305.521 49.1719C306.082 49.425 306.724 49.5515 307.447 49.5515H310.24V41.3618Z" fill="white"/>
</svg>
