<svg width="135" height="107" viewBox="0 0 135 107" fill="none" xmlns="http://www.w3.org/2000/svg">
<mask id="mask0_226_506" style="mask-type:alpha" maskUnits="userSpaceOnUse" x="0" y="0" width="135" height="107">
<rect width="135" height="107" rx="10" fill="#E6E7F9"/>
</mask>
<g mask="url(#mask0_226_506)">
<path d="M100.738 21.7052C101.291 22.0779 101.748 22.4946 102.016 22.8673C103.423 24.8307 102.922 27.784 102.177 29.9157C101.932 30.617 101.616 31.2982 101.443 32.0235C101.203 33.0453 101.263 34.1392 101.616 35.1289C102.056 36.3671 102.934 37.425 103.283 38.6953C103.635 39.9775 103.391 41.4121 102.629 42.502C101.315 44.3893 98.6985 45.1426 97.6406 47.1823C97.0596 48.3082 97.0556 49.6346 97.1357 50.9008C97.2159 52.1631 97.3561 53.4574 97.0155 54.6795C96.6749 55.9017 95.7132 57.0517 94.451 57.1679C93.6976 57.236 92.9604 56.9355 92.2872 56.5909C90.3477 55.6011 88.6367 54.2147 87.0138 52.7601C85.7396 51.6221 84.5094 50.436 83.3273 49.2018C82.2454 48.0758 81.1795 46.8777 80.5985 45.4272C79.5967 42.9267 80.2258 39.9815 81.7205 37.7376C83.2151 35.4936 85.4711 33.8627 87.8313 32.5644C89.0855 31.8752 90.3838 31.2621 91.5338 30.4126C93.6576 28.8459 95.1522 26.4697 95.7212 23.9011C95.9055 23.0716 95.7292 21.4808 96.4986 20.9319C97.5765 20.1665 99.4278 20.8156 100.742 21.7052H100.738Z" fill="#122A50"/>
<path d="M80.1578 41.5242C80.1578 41.5242 101.315 41.2197 101.311 61.1149C101.303 84.1355 93.4733 125.204 87.3865 130.562C82.9227 134.493 28.7429 138.944 20.1838 126.282C15.3112 119.073 34.6894 56.7311 53.2983 44.6978C61.3886 39.4686 80.1578 41.5242 80.1578 41.5242Z" fill="#FEBD69"/>
<path d="M94.7115 46.2446C94.7115 46.2446 90.0233 53.1328 80.9793 52.6279C64.3539 51.6983 58.6478 42.498 58.6478 42.498C58.6478 42.498 62.7711 41.4081 76.6797 41.1236C88.6448 40.8792 94.7115 46.2446 94.7115 46.2446Z" fill="#ED784D"/>
<path d="M84.6657 26.4376C86.5771 22.5227 89.6746 19.4933 91.634 19.6817C95.7653 20.0824 101.179 23.7929 99.7684 27.2871C99.7684 27.2871 93.6416 45.2549 86.2726 39.9014C83.6159 43.5599 80.6025 46.8216 80.3421 47.5189C79.8131 48.9414 75.4454 44.3092 74.5438 42.7745C73.9227 41.7206 80.5064 32.2399 84.6657 26.4336V26.4376Z" fill="#ED784D"/>
<mask id="mask1_226_506" style="mask-type:luminance" maskUnits="userSpaceOnUse" x="74" y="19" width="26" height="29">
<path d="M84.6657 26.4376C86.5771 22.5227 89.6746 19.4933 91.634 19.6817C95.7653 20.0824 101.179 23.7929 99.7684 27.2871C99.7684 27.2871 93.6416 45.2549 86.2726 39.9014C83.6159 43.5599 80.6025 46.8216 80.3421 47.5189C79.8131 48.9414 75.4454 44.3092 74.5438 42.7745C73.9227 41.7206 80.5064 32.2399 84.6657 26.4336V26.4376Z" fill="white"/>
</mask>
<g mask="url(#mask1_226_506)">
<path d="M98.6424 31.4504C96.8232 30.7812 95.4327 29.0662 95.1562 27.1508C94.4991 27.6156 93.6255 27.5956 92.8201 27.5555C91.7262 27.5034 90.6322 27.3992 89.5383 27.4594C88.4444 27.5195 87.3384 27.7519 86.4008 28.3209C86.6572 27.3271 87.2783 26.4255 88.1438 25.8766C89.5543 24.987 91.3495 25.1232 92.9764 24.7706C94.2306 24.4981 95.4167 23.9091 96.3984 23.0796C97.3361 24.9589 98.7025 26.6218 100.357 27.9121C99.8686 29.2184 99.1273 30.1481 98.6384 31.4544L98.6424 31.4504Z" fill="#D24A0E"/>
</g>
<path d="M86.2726 39.9055C86.2726 39.9055 84.7219 38.8315 84.213 36.9442C84.213 36.9442 82.6262 39.7051 85.0945 41.5043L86.2766 39.9055H86.2726Z" fill="#D24A0E"/>
<path d="M94.7115 103.622C94.7115 103.622 112.587 101.643 115.961 120.087C119.335 138.532 80.1939 185.327 74.1191 186.224C68.0444 187.126 54.7729 183.748 55.2217 181.724C55.6705 179.701 91.8905 134.032 92.7881 125.709C93.6897 117.386 94.7075 103.618 94.7075 103.618L94.7115 103.622Z" fill="#233F6D"/>
<path d="M41.9382 147.62C30.4018 143.653 21.5181 129.107 21.5181 129.107C21.5181 129.107 64.8307 76.9869 92.0187 99.2903C119.207 121.598 62.3904 185.034 51.5873 184.685C40.7842 184.337 34.0042 178.262 34.7255 176.459C35.3626 174.864 58.5676 143.324 64.8748 134.805C60.7194 140.247 51.5592 150.926 41.9342 147.616L41.9382 147.62Z" fill="#294783"/>
<path d="M64.8788 134.805C64.8788 134.805 78.4508 117.803 75.6338 111.985C72.8169 106.163 64.8788 134.805 64.8788 134.805Z" fill="#233F6D"/>
<path d="M93.9902 26.1492C92.1429 26.8704 89.8188 25.8807 88.1879 27.0067C86.4929 28.1808 86.6572 30.8895 85.1345 32.276C84.1368 33.1816 82.6542 33.3018 81.5081 34.007C79.4445 35.2733 78.9516 38.0302 78.8795 40.4545C78.8074 42.8747 78.8715 45.5234 77.3648 47.4228C76.1226 48.9855 74.0109 49.6747 72.0153 49.6106C70.0198 49.5465 68.1004 48.8252 66.2812 48.0038C63.1116 46.5733 59.7777 44.3694 59.1967 40.9433C58.6758 37.8619 60.7514 34.7444 63.5444 33.3379C65.3195 32.4443 67.3912 32.0877 68.9259 30.8254C70.709 29.3588 71.4904 26.8825 73.4058 25.5922C75.6498 24.0775 78.7513 24.6385 81.1836 23.4444C83.0589 22.5228 84.285 20.6875 85.8959 19.3531C87.5548 17.9827 89.6505 17.1533 91.7983 17.017C93.6776 16.8968 95.7373 17.4017 96.8913 18.8923C97.825 20.0985 97.7729 21.7935 96.9274 23.0156C96.2061 24.0655 95.2244 25.6763 93.9982 26.1532L93.9902 26.1492Z" fill="#122A50"/>
<path d="M58.0507 53.7899C58.0507 53.7899 55.995 94.9386 59.962 99.118C63.933 103.297 109.514 109.424 110.74 115.547C111.966 121.67 106.885 133.543 100.622 133.683C94.3588 133.823 38.5923 123.124 35.4547 111.616C32.3172 100.108 41.6296 60.6541 45.0597 57.9573C48.4897 55.2605 58.0466 53.7899 58.0466 53.7899H58.0507Z" fill="#FEBD69"/>
<path d="M36.6609 113.788C36.6609 113.788 32.1328 108.318 32.8461 100.621C33.5594 92.9231 40.9725 66.9772 40.2592 66.2639C39.5459 65.5507 26.575 100.48 26.8595 107.18C27.144 113.88 31.1591 118.889 31.1591 118.889L36.6609 113.788Z" fill="#E9A854"/>
<path d="M59.377 98.1283C59.377 98.1283 58.3552 74.1058 64.8787 65.4866C71.4063 56.8673 62.8351 91.5366 64.8787 95.8643L59.377 98.1283Z" fill="#E9A854"/>
<path d="M116.169 102.516C117.319 90.0541 104.373 48.8212 97.6366 47.1823C90.9007 45.5434 79.8452 50.2157 80.9832 52.6279C82.1212 55.0402 91.8464 109.272 100.001 111.203C108.155 113.139 115.757 106.98 116.173 102.516H116.169Z" fill="#FEBD69"/>
<mask id="mask2_226_506" style="mask-type:luminance" maskUnits="userSpaceOnUse" x="80" y="46" width="37" height="66">
<path d="M116.169 102.516C117.319 90.0541 104.373 48.8212 97.6366 47.1823C90.9007 45.5434 79.8452 50.2157 80.9832 52.6279C82.1212 55.0402 91.8464 109.272 100.001 111.203C108.155 113.139 115.757 106.98 116.173 102.516H116.169Z" fill="white"/>
</mask>
<g mask="url(#mask2_226_506)">
<path d="M98.6183 106.106C96.4906 104.455 94.455 102.684 92.5316 100.801C92.6317 103.418 92.76 106.138 93.9941 108.451C95.2363 110.783 97.5044 112.446 99.9647 113.411C101.756 114.117 103.715 114.489 105.619 114.197C106.813 114.012 108.796 113.431 109.51 112.345C110.539 110.787 108.023 110.807 107.105 110.606C103.944 109.909 101.143 108.062 98.6183 106.102V106.106Z" fill="#E9A854"/>
</g>
<path d="M93.3251 100.452C93.3251 100.452 81.8809 49.6146 80.9833 52.6279C80.0857 55.6372 83.5318 91.2281 83.7121 94.7864C83.7121 94.7864 90.0794 97.0664 93.3291 100.452H93.3251Z" fill="#E9A854"/>
<path d="M95.4368 46.8417C95.4368 46.8417 97.1919 42.3858 95.7333 41.1156C94.2788 39.8453 90.1595 40.0857 89.2659 40.8952C88.3723 41.7046 84.0808 44.3733 87.074 48.132C87.074 48.132 93.2329 46.4971 95.4328 46.8377L95.4368 46.8417Z" fill="#ED784D"/>
<path d="M87.3866 42.5581C87.3866 42.5581 84.9823 44.4454 86.0282 46.2927L87.0741 48.136L84.6578 49.0816C84.6578 49.0816 82.0652 42.9909 87.3826 42.5581H87.3866Z" fill="#D24A0E"/>
<path d="M97.0556 20.6354C96.7391 21.0321 96.4946 21.4769 96.3223 21.9537C95.7493 23.5565 96.114 25.4078 97.0757 26.8103C98.0374 28.2128 99.544 29.1825 101.163 29.7074C101.892 28.0805 101.66 26.089 100.858 24.4982C100.057 22.9034 98.4982 21.6772 97.0516 20.6394L97.0556 20.6354Z" fill="#122A50"/>
</g>
</svg>
