<svg width="20.000000" height="20.000000" viewBox="0 0 20 20" fill="none" xmlns="http://www.w3.org/2000/svg" xmlns:xlink="http://www.w3.org/1999/xlink">
	<desc>
			Created with Pixso.
	</desc>
	<defs/>
	<path id="Vector" d="M8.59 14.6L15.65 7.55L14.25 6.15L8.59 11.8L5.75 8.94L4.34 10.35L8.59 14.6ZM10 20C8.61 20 7.31 19.73 6.09 19.21C4.88 18.68 3.82 17.97 2.92 17.07C2.02 16.17 1.31 15.11 0.78 13.9C0.26 12.68 0 11.38 0 10C0 8.61 0.26 7.31 0.78 6.09C1.31 4.88 2.02 3.82 2.92 2.92C3.82 2.02 4.88 1.31 6.09 0.78C7.31 0.26 8.61 0 10 0C11.38 0 12.68 0.26 13.9 0.78C15.11 1.31 16.17 2.02 17.07 2.92C17.97 3.82 18.68 4.88 19.21 6.09C19.73 7.31 20 8.61 20 10C20 11.38 19.73 12.68 19.21 13.9C18.68 15.11 17.97 16.17 17.07 17.07C16.17 17.97 15.11 18.68 13.9 19.21C12.68 19.73 11.38 20 10 20ZM10 18C12.23 18 14.12 17.22 15.67 15.67C17.22 14.12 18 12.23 18 10C18 7.76 17.22 5.87 15.67 4.32C14.12 2.77 12.23 2 10 2C7.76 2 5.87 2.77 4.32 4.32C2.77 5.87 2 7.76 2 10C2 12.23 2.77 14.12 4.32 15.67C5.87 17.22 7.76 18 10 18Z" fill="#54BD95" fill-opacity="1.000000" fill-rule="nonzero"/>
</svg>
