<svg width="224" height="46" viewBox="0 0 224 46" fill="none" xmlns="http://www.w3.org/2000/svg">
<path d="M15.8708 18.8061H17.7159V22.2792H15.8708V20H2.89002V4.80509H4.86536V18.8061H13.8955V4.80509H15.8708V18.8061ZM20.5439 4.80509H30.3555V5.99897H22.5193V11.4474H29.2484V12.4894H22.5193V18.8061H30.3555V20H20.5439V4.80509ZM34.492 12.446V20H32.5167V4.80509H34.492V11.4474H43.5873V4.80509H45.5626V20H43.5873V12.446H34.492ZM55.3052 20H53.3298V5.99897H47.5124V4.80509H61.1227V5.99897H55.3052V20ZM65.0515 13.6616V20H63.0761V4.80509H68.1556C68.9949 4.80509 69.7257 4.92809 70.348 5.17411C70.9702 5.42012 71.484 5.75296 71.8892 6.17263C72.3088 6.57783 72.62 7.06262 72.8226 7.627C73.0252 8.17691 73.1265 8.75577 73.1265 9.36356C73.1265 10.0003 73.0107 10.6009 72.7792 11.1652C72.5476 11.7152 72.2003 12.2072 71.7372 12.6413C71.2886 13.061 70.7242 13.3938 70.0441 13.6398C69.3639 13.8859 68.5825 14.0089 67.6997 14.0089C67.1787 14.0089 66.7012 13.9799 66.267 13.922C65.8329 13.8497 65.4277 13.7629 65.0515 13.6616ZM65.0515 5.7602V12.7716C65.3554 12.8873 65.6954 12.9669 66.0717 13.0103C66.4479 13.0393 66.8604 13.0538 67.309 13.0538C67.9602 13.0538 68.5173 12.9452 68.9804 12.7281C69.4435 12.5111 69.827 12.2289 70.1309 11.8816C70.4348 11.5343 70.6519 11.1508 70.7821 10.7311C70.9268 10.297 70.9992 9.87006 70.9992 9.45039C70.9992 9.01625 70.9196 8.58211 70.7604 8.14797C70.6157 7.69936 70.3914 7.3014 70.0875 6.95408C69.7836 6.5923 69.4001 6.30287 68.937 6.0858C68.4739 5.86873 67.9385 5.7602 67.3307 5.7602H65.0515ZM95.4888 4.80509V20H93.5134V5.99897H84.4182V20H82.4428V4.80509H95.4888ZM112.655 17.1998L113.306 17.7859C113.118 18.003 112.843 18.2562 112.481 18.5456C112.12 18.8351 111.664 19.11 111.114 19.3705C110.578 19.6165 109.942 19.8263 109.204 20C108.48 20.1737 107.655 20.2605 106.729 20.2605C105.267 20.2605 104.008 20.0362 102.952 19.5876C101.896 19.1245 101.027 18.5239 100.347 17.7859C99.6671 17.0334 99.1606 16.1796 98.8277 15.2245C98.5094 14.2549 98.3502 13.2636 98.3502 12.2506C98.3502 11.0784 98.5528 10.022 98.958 9.08137C99.3632 8.12626 99.9348 7.31587 100.673 6.65018C101.411 5.97003 102.294 5.44906 103.321 5.08728C104.363 4.7255 105.513 4.5446 106.773 4.5446C107.641 4.5446 108.415 4.63143 109.095 4.80509C109.775 4.97874 110.369 5.21752 110.875 5.52142C111.382 5.82532 111.801 6.1871 112.134 6.60677C112.481 7.02644 112.764 7.48229 112.981 7.97431H111.374C111.273 7.67041 111.092 7.37375 110.832 7.08432C110.586 6.78043 110.26 6.51271 109.855 6.28117C109.464 6.04962 109.008 5.8615 108.487 5.71678C107.981 5.57207 107.416 5.49971 106.794 5.49971C105.883 5.49971 105.036 5.66613 104.254 5.99897C103.488 6.33181 102.822 6.7949 102.257 7.38822C101.693 7.98155 101.252 8.69064 100.933 9.51551C100.629 10.3259 100.477 11.2231 100.477 12.2072C100.477 13.1333 100.622 14.0233 100.912 14.8771C101.216 15.731 101.657 16.4835 102.236 17.1347C102.815 17.7859 103.538 18.3069 104.406 18.6976C105.275 19.0883 106.273 19.2837 107.402 19.2837C109.428 19.2837 111.179 18.589 112.655 17.1998ZM117.458 18.22L126.466 4.80509H128.442V20H126.466V6.43312L117.458 20H115.482V4.80509H117.458V18.22ZM132.824 4.80509L137.47 10.7745H137.578L142.159 4.80509H143.309L138.121 11.5994L144.698 20H142.245L136.949 13.2057H136.862L131.674 20H130.502L136.319 12.4243L130.393 4.80509H132.824ZM145.137 12.4025C145.137 11.5777 145.289 10.7022 145.593 9.776C145.911 8.84983 146.403 8.00326 147.069 7.23627C147.735 6.45482 148.581 5.81085 149.609 5.30435C150.636 4.79785 151.866 4.5446 153.299 4.5446C154.746 4.5446 155.998 4.80509 157.054 5.32606C158.125 5.83255 159.008 6.47653 159.703 7.25798C160.397 8.03943 160.911 8.89324 161.244 9.81941C161.577 10.7311 161.743 11.5921 161.743 12.4025C161.743 12.938 161.663 13.5024 161.504 14.0957C161.359 14.689 161.135 15.2823 160.831 15.8757C160.542 16.4545 160.166 17.0117 159.703 17.5471C159.239 18.0681 158.69 18.5312 158.053 18.9364C157.431 19.3416 156.721 19.6672 155.925 19.9132C155.144 20.1447 154.269 20.2605 153.299 20.2605C151.866 20.2605 150.636 20.0072 149.609 19.5007C148.581 18.9798 147.735 18.3286 147.069 17.5471C146.403 16.7657 145.911 15.9191 145.593 15.0074C145.289 14.0812 145.137 13.2129 145.137 12.4025ZM147.264 12.4025C147.264 13.4155 147.416 14.3489 147.72 15.2027C148.039 16.0421 148.466 16.7657 149.001 17.3735C149.551 17.9812 150.195 18.4588 150.933 18.8061C151.671 19.139 152.474 19.3054 153.342 19.3054C154.196 19.3054 154.999 19.139 155.752 18.8061C156.519 18.4588 157.185 17.9812 157.749 17.3735C158.328 16.7657 158.784 16.0421 159.116 15.2027C159.449 14.3489 159.616 13.4155 159.616 12.4025C159.616 11.3895 159.449 10.4634 159.116 9.62405C158.784 8.77024 158.328 8.03943 157.749 7.43164C157.185 6.82384 156.519 6.35352 155.752 6.02068C154.999 5.67337 154.196 5.49971 153.342 5.49971C152.474 5.49971 151.671 5.67337 150.933 6.02068C150.195 6.35352 149.551 6.82384 149.001 7.43164C148.466 8.03943 148.039 8.77024 147.72 9.62405C147.416 10.4634 147.264 11.3895 147.264 12.4025ZM171.646 4.80509L178.245 20H176.096L170.605 7.23627H170.518L166.285 17.9812C165.995 18.7193 165.663 19.2837 165.286 19.6744C164.925 20.0651 164.512 20.2605 164.049 20.2605C163.76 20.2605 163.47 20.2388 163.181 20.1954C162.906 20.1519 162.645 20.0868 162.399 20L162.985 18.5239C163.13 18.5963 163.289 18.6831 163.463 18.7844C163.637 18.8857 163.817 18.9364 164.006 18.9364C164.483 18.9364 164.83 18.741 165.048 18.3503C165.279 17.9595 165.518 17.4386 165.764 16.7874L170.453 4.80509H171.646ZM178.897 12.4025C178.897 11.5777 179.049 10.7022 179.353 9.776C179.672 8.84983 180.164 8.00326 180.829 7.23627C181.495 6.45482 182.342 5.81085 183.369 5.30435C184.397 4.79785 185.627 4.5446 187.059 4.5446C188.506 4.5446 189.758 4.80509 190.815 5.32606C191.885 5.83255 192.768 6.47653 193.463 7.25798C194.157 8.03943 194.671 8.89324 195.004 9.81941C195.337 10.7311 195.503 11.5921 195.503 12.4025C195.503 12.938 195.424 13.5024 195.265 14.0957C195.12 14.689 194.896 15.2823 194.592 15.8757C194.302 16.4545 193.926 17.0117 193.463 17.5471C193 18.0681 192.45 18.5312 191.813 18.9364C191.191 19.3416 190.482 19.6672 189.686 19.9132C188.904 20.1447 188.029 20.2605 187.059 20.2605C185.627 20.2605 184.397 20.0072 183.369 19.5007C182.342 18.9798 181.495 18.3286 180.829 17.5471C180.164 16.7657 179.672 15.9191 179.353 15.0074C179.049 14.0812 178.897 13.2129 178.897 12.4025ZM181.025 12.4025C181.025 13.4155 181.177 14.3489 181.481 15.2027C181.799 16.0421 182.226 16.7657 182.761 17.3735C183.311 17.9812 183.955 18.4588 184.693 18.8061C185.431 19.139 186.234 19.3054 187.103 19.3054C187.957 19.3054 188.76 19.139 189.512 18.8061C190.279 18.4588 190.945 17.9812 191.509 17.3735C192.088 16.7657 192.544 16.0421 192.877 15.2027C193.21 14.3489 193.376 13.4155 193.376 12.4025C193.376 11.3895 193.21 10.4634 192.877 9.62405C192.544 8.77024 192.088 8.03943 191.509 7.43164C190.945 6.82384 190.279 6.35352 189.512 6.02068C188.76 5.67337 187.957 5.49971 187.103 5.49971C186.234 5.49971 185.431 5.67337 184.693 6.02068C183.955 6.35352 183.311 6.82384 182.761 7.43164C182.226 8.03943 181.799 8.77024 181.481 9.62405C181.177 10.4634 181.025 11.3895 181.025 12.4025ZM198.113 4.80509H207.382V5.99897H200.089V20H198.113V4.80509ZM210.424 4.80509H212.4V20H210.424V4.80509ZM218.263 4.80509H220.239V20H218.263V4.80509ZM216.57 1.37538C216.57 1.05701 216.686 0.782054 216.918 0.550513C217.149 0.318971 217.424 0.2032 217.742 0.2032C218.061 0.2032 218.336 0.318971 218.567 0.550513C218.799 0.782054 218.915 1.05701 218.915 1.37538C218.915 1.69375 218.799 1.9687 218.567 2.20025C218.336 2.43179 218.061 2.54756 217.742 2.54756C217.424 2.54756 217.149 2.43179 216.918 2.20025C216.686 1.9687 216.57 1.69375 216.57 1.37538ZM219.566 1.37538C219.566 1.05701 219.682 0.782054 219.913 0.550513C220.145 0.318971 220.42 0.2032 220.738 0.2032C221.056 0.2032 221.331 0.318971 221.563 0.550513C221.794 0.782054 221.91 1.05701 221.91 1.37538C221.91 1.69375 221.794 1.9687 221.563 2.20025C221.331 2.43179 221.056 2.54756 220.738 2.54756C220.42 2.54756 220.145 2.43179 219.913 2.20025C219.682 1.9687 219.566 1.69375 219.566 1.37538Z" fill="#151515"/>
<path d="M13.9708 37.9543L14.5457 38.4717C14.3796 38.6633 14.1369 38.8869 13.8175 39.1424C13.4981 39.3979 13.0957 39.6406 12.6103 39.8706C12.1376 40.0877 11.5755 40.273 10.924 40.4263C10.2852 40.5796 9.55705 40.6562 8.73946 40.6562C7.44919 40.6562 6.33777 40.4582 5.4052 40.0622C4.47263 39.6534 3.70613 39.1232 3.10571 38.4717C2.50529 37.8074 2.05817 37.0537 1.76434 36.2105C1.4833 35.3546 1.34277 34.4795 1.34277 33.5853C1.34277 32.5505 1.52162 31.618 1.87932 30.7876C2.23702 29.9444 2.74163 29.229 3.39315 28.6414C4.04467 28.041 4.82394 27.5811 5.73096 27.2617C6.65076 26.9423 7.66636 26.7826 8.77778 26.7826C9.54428 26.7826 10.2277 26.8593 10.8282 27.0126C11.4286 27.1659 11.9524 27.3767 12.3995 27.6449C12.8466 27.9132 13.2171 28.2326 13.5109 28.6031C13.8175 28.9735 14.0666 29.376 14.2582 29.8103H12.8402C12.7508 29.542 12.5911 29.2801 12.3611 29.0246C12.144 28.7564 11.8565 28.52 11.4988 28.3156C11.1539 28.1112 10.7515 27.9452 10.2916 27.8174C9.84449 27.6897 9.34627 27.6258 8.79694 27.6258C7.99212 27.6258 7.24479 27.7727 6.55494 28.0665C5.87787 28.3603 5.29023 28.7691 4.792 29.2929C4.29378 29.8167 3.90415 30.4427 3.6231 31.1708C3.35482 31.8862 3.22069 32.6783 3.22069 33.547C3.22069 34.3646 3.34844 35.1502 3.60393 35.9039C3.87221 36.6577 4.26184 37.322 4.77284 37.8968C5.28384 38.4717 5.92258 38.9316 6.68908 39.2765C7.45558 39.6214 8.33705 39.7939 9.33349 39.7939C11.122 39.7939 12.6677 39.1807 13.9708 37.9543ZM23.7204 36.4788H17.1094L15.4231 40.4263H14.5416L20.2137 27.0126H21.1718L27.4188 40.4263H25.56L23.7204 36.4788ZM23.318 35.6165L20.3095 29.1588H20.2329L17.4735 35.6165H23.318ZM30.6461 27.0126L36.7972 38.5292H36.8739L43.0825 27.0126H44.4047V40.4263H42.6609V29.5612H42.5843L36.529 40.6562H36.1841L30.2629 29.4845H30.1862V40.4263H29.3431V27.0126H30.6461ZM46.7112 33.7194C46.7112 32.9913 46.8454 32.2184 47.1137 31.4008C47.3947 30.5832 47.8291 29.8359 48.4167 29.1588C49.0043 28.4689 49.7517 27.9004 50.6587 27.4533C51.5657 27.0062 52.6516 26.7826 53.9163 26.7826C55.1938 26.7826 56.2988 27.0126 57.2314 27.4725C58.1767 27.9196 58.956 28.4881 59.5692 29.1779C60.1824 29.8678 60.6359 30.6215 60.9297 31.4391C61.2236 32.2439 61.3705 33.004 61.3705 33.7194C61.3705 34.1921 61.3002 34.6903 61.1597 35.2141C61.0319 35.7379 60.8339 36.2616 60.5657 36.7854C60.3102 37.2964 59.978 37.7882 59.5692 38.2609C59.1604 38.7208 58.675 39.1296 58.1129 39.4873C57.5635 39.845 56.9376 40.1324 56.235 40.3496C55.5451 40.554 54.7722 40.6562 53.9163 40.6562C52.6516 40.6562 51.5657 40.4327 50.6587 39.9855C49.7517 39.5256 49.0043 38.9508 48.4167 38.2609C47.8291 37.5711 47.3947 36.8237 47.1137 36.0189C46.8454 35.2013 46.7112 34.4348 46.7112 33.7194ZM48.5892 33.7194C48.5892 34.6137 48.7233 35.4377 48.9916 36.1914C49.2726 36.9323 49.6495 37.5711 50.1222 38.1076C50.6076 38.6442 51.1761 39.0657 51.8276 39.3723C52.4791 39.6662 53.1881 39.8131 53.9546 39.8131C54.7084 39.8131 55.4174 39.6662 56.0817 39.3723C56.7587 39.0657 57.3464 38.6442 57.8446 38.1076C58.3556 37.5711 58.758 36.9323 59.0518 36.1914C59.3457 35.4377 59.4926 34.6137 59.4926 33.7194C59.4926 32.8252 59.3457 32.0076 59.0518 31.2666C58.758 30.5129 58.3556 29.8678 57.8446 29.3312C57.3464 28.7947 56.7587 28.3795 56.0817 28.0857C55.4174 27.7791 54.7084 27.6258 53.9546 27.6258C53.1881 27.6258 52.4791 27.7791 51.8276 28.0857C51.1761 28.3795 50.6076 28.7947 50.1222 29.3312C49.6495 29.8678 49.2726 30.5129 48.9916 31.2666C48.7233 32.0076 48.5892 32.8252 48.5892 33.7194ZM64.0002 27.0126L68.7908 34.7925H68.8675L72.4508 27.0126H73.4473L67.9477 38.9316C67.7688 39.3021 67.5836 39.6023 67.392 39.8322C67.2003 40.0494 67.0023 40.2219 66.7979 40.3496C66.6063 40.4774 66.4019 40.5604 66.1847 40.5987C65.9803 40.6371 65.7823 40.6562 65.5907 40.6562C65.1563 40.6562 64.7603 40.586 64.4026 40.4454C64.0577 40.3177 63.7958 40.1772 63.617 40.0239L64.4218 38.2418C64.5879 38.4589 64.7987 38.6633 65.0541 38.855C65.3096 39.0466 65.5907 39.1424 65.8973 39.1424C66.3061 39.1424 66.5999 39.0466 66.7788 38.855C66.9704 38.6633 67.1301 38.4398 67.2578 38.1843L67.9477 36.7279L61.9498 27.0126H64.0002ZM86.8831 37.9543L87.458 38.4717C87.2919 38.6633 87.0492 38.8869 86.7298 39.1424C86.4104 39.3979 86.008 39.6406 85.5226 39.8706C85.0499 40.0877 84.4878 40.273 83.8363 40.4263C83.1975 40.5796 82.4694 40.6562 81.6518 40.6562C80.3615 40.6562 79.2501 40.4582 78.3175 40.0622C77.385 39.6534 76.6185 39.1232 76.018 38.4717C75.4176 37.8074 74.9705 37.0537 74.6767 36.2105C74.3956 35.3546 74.2551 34.4795 74.2551 33.5853C74.2551 32.5505 74.4339 31.618 74.7916 30.7876C75.1493 29.9444 75.6539 29.229 76.3055 28.6414C76.957 28.041 77.7363 27.5811 78.6433 27.2617C79.5631 26.9423 80.5787 26.7826 81.6901 26.7826C82.4566 26.7826 83.1401 26.8593 83.7405 27.0126C84.3409 27.1659 84.8647 27.3767 85.3118 27.6449C85.7589 27.9132 86.1294 28.2326 86.4232 28.6031C86.7298 28.9735 86.9789 29.376 87.1705 29.8103H85.7525C85.6631 29.542 85.5034 29.2801 85.2735 29.0246C85.0563 28.7564 84.7689 28.52 84.4112 28.3156C84.0662 28.1112 83.6638 27.9452 83.2039 27.8174C82.7568 27.6897 82.2586 27.6258 81.7093 27.6258C80.9044 27.6258 80.1571 27.7727 79.4673 28.0665C78.7902 28.3603 78.2025 28.7691 77.7043 29.2929C77.2061 29.8167 76.8165 30.4427 76.5354 31.1708C76.2671 31.8862 76.133 32.6783 76.133 33.547C76.133 34.3646 76.2608 35.1502 76.5163 35.9039C76.7845 36.6577 77.1742 37.322 77.6852 37.8968C78.1962 38.4717 78.8349 38.9316 79.6014 39.2765C80.3679 39.6214 81.2494 39.7939 82.2458 39.7939C84.0343 39.7939 85.5801 39.1807 86.8831 37.9543ZM89.379 40.4263V27.0126H94.1696C94.8339 27.0126 95.4088 27.1148 95.8942 27.3192C96.3925 27.5108 96.7949 27.7599 97.1015 28.0665C97.4208 28.3731 97.6572 28.7117 97.8105 29.0821C97.9638 29.4526 98.0404 29.8167 98.0404 30.1744C98.0404 30.5832 97.951 30.9728 97.7721 31.3433C97.5933 31.701 97.3506 32.0204 97.044 32.3014C96.7502 32.5697 96.4052 32.7932 96.0092 32.9721C95.6132 33.1382 95.1916 33.2212 94.7445 33.2212V33.2979C95.0255 33.3106 95.396 33.3553 95.8559 33.432C96.3158 33.5086 96.7629 33.6619 97.1973 33.8919C97.6316 34.1218 98.0021 34.454 98.3087 34.8883C98.6281 35.3227 98.7878 35.9039 98.7878 36.6321C98.7878 37.092 98.7047 37.5519 98.5386 38.0118C98.3853 38.4589 98.1298 38.8613 97.7721 39.219C97.4144 39.5767 96.9418 39.8706 96.3541 40.1005C95.7665 40.3177 95.0447 40.4263 94.1888 40.4263H89.379ZM91.1228 39.5831H93.9013C94.3101 39.5831 94.6934 39.5256 95.0511 39.4107C95.4216 39.2829 95.7409 39.0977 96.0092 38.855C96.2775 38.6122 96.4883 38.3184 96.6416 37.9735C96.8076 37.6286 96.8907 37.2325 96.8907 36.7854C96.8907 36.3766 96.814 35.987 96.6607 35.6165C96.5202 35.246 96.2966 34.9203 95.99 34.6392C95.6962 34.3582 95.3194 34.1346 94.8595 33.9685C94.3996 33.8025 93.8566 33.7194 93.2307 33.7194H91.1228V39.5831ZM91.1228 32.8763H93.4223C93.8055 32.8763 94.1632 32.8124 94.4954 32.6847C94.8403 32.5569 95.1405 32.3781 95.396 32.1481C95.6643 31.9182 95.8687 31.6435 96.0092 31.3241C96.1625 31.0048 96.2392 30.6598 96.2392 30.2894C96.2392 29.9955 96.1881 29.7017 96.0859 29.4079C95.9837 29.1141 95.8176 28.8522 95.5876 28.6222C95.3705 28.3923 95.083 28.207 94.7253 28.0665C94.3804 27.926 93.9588 27.8557 93.4606 27.8557H91.1228V32.8763ZM101.463 27.0126H103.207V40.4263H101.463V27.0126ZM113.672 27.0126L118.98 39.5256H120.858V42.4383H119.229V40.4263H107.54V42.4383H105.892V39.5256H107.694L112.503 27.0126H113.672ZM117.141 39.5256L112.695 29.1013H112.618L108.594 39.5256H117.141ZM121.43 33.7194C121.43 32.9913 121.564 32.2184 121.832 31.4008C122.113 30.5832 122.547 29.8359 123.135 29.1588C123.723 28.4689 124.47 27.9004 125.377 27.4533C126.284 27.0062 127.37 26.7826 128.635 26.7826C129.912 26.7826 131.017 27.0126 131.95 27.4725C132.895 27.9196 133.674 28.4881 134.288 29.1779C134.901 29.8678 135.354 30.6215 135.648 31.4391C135.942 32.2439 136.089 33.004 136.089 33.7194C136.089 34.1921 136.019 34.6903 135.878 35.2141C135.75 35.7379 135.552 36.2616 135.284 36.7854C135.029 37.2964 134.696 37.7882 134.288 38.2609C133.879 38.7208 133.393 39.1296 132.831 39.4873C132.282 39.845 131.656 40.1324 130.953 40.3496C130.263 40.554 129.491 40.6562 128.635 40.6562C127.37 40.6562 126.284 40.4327 125.377 39.9855C124.47 39.5256 123.723 38.9508 123.135 38.2609C122.547 37.5711 122.113 36.8237 121.832 36.0189C121.564 35.2013 121.43 34.4348 121.43 33.7194ZM123.308 33.7194C123.308 34.6137 123.442 35.4377 123.71 36.1914C123.991 36.9323 124.368 37.5711 124.841 38.1076C125.326 38.6442 125.894 39.0657 126.546 39.3723C127.198 39.6662 127.907 39.8131 128.673 39.8131C129.427 39.8131 130.136 39.6662 130.8 39.3723C131.477 39.0657 132.065 38.6442 132.563 38.1076C133.074 37.5711 133.476 36.9323 133.77 36.1914C134.064 35.4377 134.211 34.6137 134.211 33.7194C134.211 32.8252 134.064 32.0076 133.77 31.2666C133.476 30.5129 133.074 29.8678 132.563 29.3312C132.065 28.7947 131.477 28.3795 130.8 28.0857C130.136 27.7791 129.427 27.6258 128.673 27.6258C127.907 27.6258 127.198 27.7791 126.546 28.0857C125.894 28.3795 125.326 28.7947 124.841 29.3312C124.368 29.8678 123.991 30.5129 123.71 31.2666C123.442 32.0076 123.308 32.8252 123.308 33.7194ZM139.696 27.0126L145.847 38.5292H145.924L152.132 27.0126H153.454V40.4263H151.711V29.5612H151.634L145.579 40.6562H145.234L139.313 29.4845H139.236V40.4263H138.393V27.0126H139.696ZM163.541 27.0126L169.366 40.4263H167.469L162.621 29.1588H162.544L158.808 38.6442C158.552 39.2957 158.259 39.7939 157.926 40.1388C157.607 40.4838 157.243 40.6562 156.834 40.6562C156.579 40.6562 156.323 40.6371 156.068 40.5987C155.825 40.5604 155.595 40.5029 155.378 40.4263L155.895 39.1232C156.023 39.1871 156.163 39.2638 156.317 39.3532C156.47 39.4426 156.63 39.4873 156.796 39.4873C157.217 39.4873 157.524 39.3149 157.716 38.9699C157.92 38.625 158.131 38.1651 158.348 37.5902L162.487 27.0126H163.541ZM171.283 27.0126H179.945V28.0665H173.027V32.8763H178.967V33.7961H173.027V39.3723H179.945V40.4263H171.283V27.0126ZM183.596 33.7578V40.4263H181.853V27.0126H183.596V32.8763H191.625V27.0126H193.369V40.4263H191.625V33.7578H183.596ZM198.75 33.7578V40.4263H197.007V27.0126H198.75V32.8763H206.779V27.0126H208.523V40.4263H206.779V33.7578H198.75ZM221.32 27.0126V40.4263H219.576V34.5051H218.733C218.376 34.5051 218.075 34.537 217.833 34.6009C217.603 34.6648 217.392 34.7734 217.2 34.9267C217.009 35.08 216.83 35.278 216.664 35.5207C216.498 35.7634 216.3 36.0636 216.07 36.4213L214.556 38.6633C214.364 38.9572 214.173 39.2254 213.981 39.4681C213.802 39.7109 213.604 39.9217 213.387 40.1005C213.17 40.2666 212.921 40.4007 212.64 40.5029C212.371 40.6051 212.046 40.6562 211.662 40.6562C211.381 40.6562 211.151 40.6434 210.973 40.6179C210.794 40.5923 210.615 40.5285 210.436 40.4263V39.7173C210.5 39.73 210.564 39.7428 210.628 39.7556C210.691 39.7556 210.755 39.7556 210.819 39.7556C211.087 39.7556 211.324 39.7173 211.528 39.6406C211.733 39.564 211.924 39.4554 212.103 39.3149C212.282 39.1616 212.454 38.9827 212.62 38.7783C212.787 38.5611 212.959 38.3184 213.138 38.0501C213.674 37.2709 214.09 36.6513 214.383 36.1914C214.677 35.7187 214.907 35.3546 215.073 35.0991C215.252 34.8436 215.393 34.6584 215.495 34.5434C215.61 34.4284 215.744 34.3326 215.897 34.256L216.089 34.1602V34.0835C215.476 34.0452 214.946 33.9111 214.498 33.6811C214.064 33.4512 213.706 33.1637 213.425 32.8188C213.144 32.4739 212.94 32.1034 212.812 31.7074C212.684 31.2986 212.62 30.9026 212.62 30.5193C212.62 30.1744 212.684 29.7975 212.812 29.3887C212.953 28.9799 213.183 28.6031 213.502 28.2581C213.834 27.9004 214.281 27.6066 214.843 27.3767C215.405 27.134 216.114 27.0126 216.97 27.0126H221.32ZM219.576 27.8557H217.641C217.156 27.8557 216.715 27.926 216.319 28.0665C215.936 28.207 215.603 28.4051 215.322 28.6606C215.041 28.9033 214.824 29.1971 214.671 29.542C214.53 29.887 214.46 30.2638 214.46 30.6726C214.46 31.0175 214.524 31.3688 214.652 31.7265C214.792 32.0715 214.997 32.3908 215.265 32.6847C215.533 32.9657 215.859 33.1957 216.242 33.3745C216.638 33.5534 217.092 33.6428 217.603 33.6428H219.576V27.8557Z" fill="#151515"/>
</svg>
