<svg width="55" height="55" viewBox="0 0 55 55" fill="none" xmlns="http://www.w3.org/2000/svg">
<rect x="8" y="8" width="39" height="39" rx="19.5" fill="#4CB4FC" stroke="#4CB4FC"/>
<rect x="0.5" y="0.5" width="54" height="54" rx="27" stroke="#4CB4FC" stroke-opacity="0.2"/>
<path d="M28 21C30.3195 21 32.5204 21.528 34.4894 22.4709C36.532 23.449 38.3188 24.8727 39.7232 26.6155C39.9077 26.8445 40 27.1183 40 27.3922C40 27.6661 39.9077 27.9399 39.7232 28.1689C38.3188 29.9117 36.532 31.3354 34.4894 32.3136C32.5206 33.2564 30.3195 33.7844 28 33.7844C25.6805 33.7844 23.4796 33.2564 21.5106 32.3136C19.468 31.3354 17.6812 29.9117 16.2768 28.1689C16.0923 27.9399 16 27.6661 16 27.3922C16 27.1183 16.0923 26.8445 16.2768 26.6155C17.6812 24.8727 19.468 23.449 21.5106 22.4709C23.4796 21.528 25.6805 21 28 21ZM28 22.4175C26.6262 22.4175 25.3825 22.9744 24.4823 23.8745C23.5822 24.7748 23.0253 26.0185 23.0253 27.3922C23.0253 28.766 23.5822 30.0097 24.4823 30.9099C25.3825 31.8102 26.6262 32.3669 28 32.3669C29.3738 32.3669 30.6175 31.81 31.5177 30.9099C32.4178 30.0096 32.9747 28.766 32.9747 27.3922C32.9747 26.0185 32.4178 24.7747 31.5177 23.8745C30.6174 22.9743 29.3738 22.4175 28 22.4175Z" fill="white"/>
<path fill-rule="evenodd" clip-rule="evenodd" d="M28.6927 24.255C27.6471 24.0223 26.5086 24.3152 25.6987 25.132C24.4445 26.397 24.4534 28.4392 25.7182 29.6933C26.9832 30.9475 29.0253 30.9386 30.2795 29.6736C31.0894 28.8567 31.3725 27.7159 31.1308 26.6724C30.4534 27.0511 29.581 26.9546 29.0024 26.3808C28.4237 25.807 28.3198 24.9356 28.6927 24.2549V24.255Z" fill="white"/>
</svg>
