<svg width="1191" height="548" viewBox="0 0 1191 548" fill="none" xmlns="http://www.w3.org/2000/svg">
<path d="M1007.26 411.69C1002.72 411.054 925.903 360.54 933.532 307.225C942.376 245.424 984.192 200.463 1040.91 187.365C1043.95 186.663 1059.05 225.113 1046.74 258.001C1046.74 258.001 991.879 263.801 990.403 313.613C989.303 350.821 1024.52 381.744 1024.52 381.744L1007.26 411.686V411.69Z" fill="#3ABEF9"/>
<path d="M1024.39 187.939C1027.04 187.564 1029.17 184.944 1028.99 182.272C1028.87 180.398 1027.77 178.68 1027.74 176.803C1027.69 173.945 1030.08 171.625 1032.58 170.238C1035.08 168.851 1037.91 167.963 1040.01 166.024C1040.35 165.71 1040.69 165.361 1041.12 165.202C1042.13 164.831 1043.19 165.613 1043.89 166.435C1046.55 169.584 1047.36 173.98 1046.97 178.088C1046.57 182.196 1045.08 186.11 1043.6 189.962C1042.84 191.937 1042 194.004 1040.35 195.321C1038.62 196.69 1036.3 197.008 1034.1 197.079C1030.33 197.203 1023.08 197.817 1020.09 194.857C1018.98 193.757 1018.47 191.694 1018.97 190.179C1019.84 187.586 1022.21 188.248 1024.4 187.939H1024.39Z" fill="#203170"/>
<path d="M1152.72 545.996C1152.87 478.112 1156.01 421.723 1135.71 372.445C1124.32 344.827 1091.44 280.725 1091.44 280.725L1002.64 320.619L950.23 545.996H1152.72H1152.72Z" fill="#203170"/>
<path d="M973.29 545.996C976.673 530.936 980.269 515.798 983.764 501.074C997.745 442.281 1012.22 381.514 1013.68 320.226L1011.21 320.177C1009.75 381.192 995.324 441.84 981.369 500.482C977.8 515.409 974.173 530.755 970.763 546H973.29V545.996Z" fill="#3572EF"/>
<path d="M1127.66 545.995H1130.13C1132.32 510.549 1130.47 475.32 1128.15 441.588C1125.01 395.566 1120.27 351.148 1097.29 313.825L1095.2 315.11C1117.87 351.965 1122.57 396.061 1125.7 441.76C1128 475.421 1129.84 510.616 1127.66 545.995H1127.66Z" fill="#3572EF"/>
<path d="M1090.69 545.995H1093.16C1095.38 469.785 1094.47 392.266 1074.64 317.606L1072.25 318.246C1092.01 392.597 1092.89 469.926 1090.69 545.995Z" fill="#3572EF"/>
<path d="M1041.56 545.996H1044.05C1055.39 470.288 1055.86 393.623 1045.35 317.482L1042.9 317.805C1053.41 393.83 1052.92 470.403 1041.56 546V545.996Z" fill="#3572EF"/>
<path d="M1006.81 545.995C1011.73 516.23 1014.29 486.611 1016.32 459.991C1019.88 413.453 1022.45 366.194 1023.95 319.532L1021.48 319.457C1019.98 366.071 1017.41 413.303 1013.85 459.792C1011.82 486.47 1009.26 516.169 1004.3 545.995H1006.82H1006.81Z" fill="#3572EF"/>
<path d="M1046.26 359.855C1100.26 359.926 1120.26 338.638 1120.26 338.638C1121.03 332.33 1094.27 278.419 1094.27 278.419C1110.91 249.139 1112.11 211.432 1109.08 207.805C1104.34 202.128 1071.22 190.002 1071.22 190.002L1040.67 185.055L1016.24 195.06L1006.6 289.798L992.254 343.237C992.254 343.237 1013.34 359.811 1046.26 359.851V359.855Z" fill="#3ABEF9"/>
<path d="M1102.59 386.139L1084.8 408.81C1084.8 408.81 1093.64 422.893 1100.64 429.572C1107.63 436.252 1113.27 421.868 1115.72 407.745L1102.59 386.135L1102.59 386.139Z" fill="#9B0A0A"/>
<path d="M1116.72 414.906C1121.26 414.27 1198.08 363.756 1190.45 310.441C1181.6 248.64 1139.79 203.679 1083.07 190.581C1080.03 189.878 1064.93 228.328 1077.24 261.217C1077.24 261.217 1132.1 267.017 1133.58 316.829C1134.68 354.037 1099.46 384.96 1099.46 384.96L1116.72 414.902V414.906Z" fill="#3ABEF9"/>
<path d="M1067.93 190.144C1067.93 190.837 1067.04 191.946 1064.81 193.974C1064.39 194.367 1063.95 194.738 1063.45 195.158C1056.61 200.817 1043.87 208.004 1035.42 209.806C1025.51 211.882 1017.9 204.867 1019.83 195.847C1020 194.932 1020.29 193.996 1020.69 193.055L1039.69 185.395L1045.59 164.62L1056.39 164.544L1061.47 187.396C1064.86 189.004 1067.92 188.854 1067.92 190.139L1067.93 190.144Z" fill="#9B0A0A"/>
<path d="M1026.63 147.934C1026.44 149.98 1026.54 151.994 1026.88 153.929C1027.18 155.661 1027.68 157.33 1028.35 158.912C1031.54 166.488 1038.68 172.094 1047.4 172.889C1059.98 174.037 1071.08 164.721 1072.19 152.087C1073.3 139.453 1064 128.281 1051.42 127.132C1038.84 125.984 1027.74 135.3 1026.63 147.934H1026.63Z" fill="#9B0A0A"/>
<path d="M1039.94 143.49C1041.3 144.988 1042.06 146.923 1043.78 148.239C1046.07 149.989 1049.53 148.164 1052.21 149.215C1057.92 151.455 1055.15 157.295 1054.32 161.682C1053.84 164.261 1053.92 166.002 1055.87 167.875C1060.81 172.628 1054.37 176.944 1056.04 182.453C1057.73 188.045 1066.08 188.315 1068.11 193.899C1068.94 196.182 1068.31 198.74 1068.71 201.139C1069.43 205.402 1073.2 208.432 1076.94 210.601C1080.69 212.766 1084.83 214.639 1087.35 218.155C1089.33 220.925 1090.07 224.432 1092.03 227.22C1092.81 228.333 1093.84 229.349 1095.13 229.769C1097.23 230.445 1100.05 229.194 1101.08 227.233C1102.21 225.086 1101.55 221.967 1101.93 219.595C1102.42 216.587 1104.17 213.95 1105.27 211.109C1106.37 208.269 1106.71 204.721 1104.69 202.446C1103.26 200.843 1100.79 200.039 1100.16 197.985C1099.27 195.074 1102.73 192.631 1103.2 189.622C1103.57 187.286 1102.01 185.024 1100.09 183.637C1098.17 182.25 1095.89 181.481 1093.82 180.319C1088.99 177.589 1087.64 173.114 1089.28 168.021C1090.11 165.463 1091 162.587 1089.77 160.193C1088.28 157.277 1084.44 156.429 1083.04 153.509C1081.41 150.125 1084.78 146.159 1081.75 142.739C1080.51 141.339 1078.52 140.632 1077.59 139.011C1076.64 137.35 1077.07 135.265 1076.8 133.365C1076.46 130.954 1074.86 128.754 1072.67 127.693C1070.61 126.695 1068.01 126.585 1066.48 124.879C1065.05 123.285 1064.89 120.63 1062.96 119.433C1060.61 117.97 1059.01 120.25 1056.77 120.89C1054.3 121.593 1051.92 119.777 1049.88 118.231C1047.84 116.685 1045 115.28 1042.87 116.698C1041.41 117.674 1040.78 119.751 1039.11 120.307C1036.76 121.094 1034.82 118.417 1032.96 119.963C1031.06 121.531 1030.94 124.243 1028.35 125.498C1026.81 126.244 1024.88 126.408 1023.81 127.742C1023.18 128.524 1022.99 129.571 1022.98 130.569C1022.95 133.984 1024.89 137.275 1027.72 139.183C1030.82 141.277 1034.08 140.57 1037.36 141.741C1038.49 142.143 1039.29 142.766 1039.95 143.495L1039.94 143.49Z" fill="#203170"/>
<path d="M1050.88 150.143C1052.42 147.342 1056.89 142.761 1062.2 143.808C1067.3 144.816 1073.24 153.876 1064.16 164.588C1053.47 177.2 1046.26 162.958 1046.26 162.958C1046.26 162.958 1048.88 153.796 1050.88 150.143Z" fill="#9B0A0A"/>
<path d="M1051.54 155.139L1065.86 150.779C1065.86 150.779 1064.09 147.06 1060.07 147.016C1056.04 146.971 1052.64 150.779 1051.54 155.139Z" fill="#4967AF"/>
<path d="M1055.87 151.65C1055.87 151.65 1060.17 155.926 1057.26 161.973C1053.94 168.887 1049.55 160.825 1051.8 154.477C1053.31 150.205 1055.87 151.65 1055.87 151.65Z" fill="#4967AF"/>
<path d="M1063.46 195.158C1056.61 200.817 1034.98 215.973 1026.53 217.775C1016.63 219.852 1017.9 204.867 1019.83 195.851C1028.87 197.26 1045.87 198.913 1063.46 195.158Z" fill="#A7E6FF"/>
<path d="M441.849 80.3597C433.553 69.2453 421.144 63.2375 413.356 51.7431C412.128 49.9275 410.979 47.9794 410.652 45.8148C410.325 43.6503 410.979 41.2074 412.768 39.9396C415.701 37.8589 419.713 39.7673 422.761 41.6756C417.119 35.8048 405.387 27.6501 403.275 19.4777C402.948 18.2187 402.988 16.783 403.757 15.7316C404.525 14.6803 406.164 14.2341 407.184 15.0381C407.313 12.5025 406.685 9.96681 406.862 7.43116C407.043 4.89552 408.368 2.13898 410.829 1.5117C413.669 0.782809 416.532 3.18152 419.434 2.76186C421.603 2.44822 423.286 0.628203 425.424 0.13786C429.661 -0.829573 433.155 3.57467 437.369 4.63488C438.363 4.88667 439.397 4.9441 440.386 5.20032C443.62 6.03964 445.926 8.805 448.007 11.4157C449.986 13.9028 451.969 16.3943 453.948 18.8813C456.254 21.7792 458.56 24.6727 460.804 27.6191C466.525 35.1157 472.011 43.2483 473.535 52.5515C473.955 55.1225 474.052 57.8349 473.12 60.2689C472.374 62.2259 471.013 63.878 469.599 65.4241C464.316 71.2199 457.986 76.0571 451.011 79.6397C448.934 80.7043 446.73 81.6806 444.393 81.7468C442.061 81.8131 439.56 80.7838 438.487 78.712" fill="#FFF5A0"/>
<path d="M472.687 40.876C483.475 58.0954 516.642 109.767 477.423 168.613C437.197 228.973 347.058 249.691 289.379 226.623C286.282 225.386 302.914 174.143 333.73 152.816C333.73 152.816 389.188 159.19 410.352 129.986C433.663 97.8176 426.312 66.7581 426.312 66.7581L472.692 40.8804L472.687 40.876Z" fill="#203170"/>
<path d="M186.443 545.996H234.178C235.278 544.516 238.636 538.658 243.345 530.168C262.927 494.828 305.905 414.036 305.905 414.036C299.27 464.979 277.055 525.609 270.87 541.839C270.844 541.914 270.795 541.989 270.769 542.091C269.792 544.622 269.24 545.996 269.24 545.996H332.304C383.494 416.793 371.876 287.585 371.876 287.585L275.756 329.41L272.624 330.762L257.096 337.525L186.447 545.996H186.443Z" fill="#203170"/>
<path d="M269.346 350.327C269.346 350.327 283.721 361.083 287.688 369.181C287.688 369.181 280.324 389.536 256.023 393.733L243.022 384.849L269.346 350.327Z" fill="#FFF5A0"/>
<path d="M230.26 177.664L256.407 339.853L308.551 338.249L372.839 336.27C376.17 319.568 364.949 163.162 358.389 159.981C349.298 155.55 332.317 152.644 332.317 152.644L285.96 151.04L284.405 151.791L230.26 177.664Z" fill="#3572EF"/>
<path d="M367.829 329.958C340.264 330.488 312.69 330.753 285.12 330.753" stroke="#A7E6FF" stroke-width="2.50472" stroke-miterlimit="10"/>
<path d="M373.067 312.257C367.682 314.033 361.865 313.653 356.197 313.441C328.468 312.398 300.784 315.786 273.241 319.166" stroke="#A7E6FF" stroke-width="2.50472" stroke-miterlimit="10"/>
<path d="M379.778 280C376.62 283.716 371.398 284.758 366.588 285.558C334.278 290.916 301.836 295.466 269.301 299.199" stroke="#A7E6FF" stroke-width="2.50472" stroke-miterlimit="10"/>
<path d="M372.03 260.625C366.623 264.34 359.843 265.294 353.327 266.054C324.816 269.385 296.107 270.997 267.402 270.874" stroke="#A7E6FF" stroke-width="2.50472" stroke-miterlimit="10"/>
<path d="M370.851 230.18C362.342 236.651 351.537 239.121 341.099 241.422C316.202 246.913 290.479 252.422 265.422 247.708C264.95 247.62 264.398 247.461 264.243 247.006C264.088 246.551 264.866 246.074 265.029 246.529" stroke="#A7E6FF" stroke-width="2.50472" stroke-miterlimit="10"/>
<path d="M369.905 198.957C363.663 209.435 351.78 215.036 340.312 219.189C326.857 224.061 312.809 227.807 298.496 228.015C284.184 228.223 269.509 224.658 258.058 216.074C257.148 215.39 256.398 213.715 257.493 213.411" stroke="#A7E6FF" stroke-width="2.50472" stroke-miterlimit="10"/>
<path d="M365.748 181.543C360.376 190.652 350.176 195.675 340.25 199.328C326.446 204.408 311.682 207.854 297.065 206.219C282.443 204.58 267.944 197.238 260.32 184.657C259.724 183.672 260.448 181.653 261.159 182.563" stroke="#A7E6FF" stroke-width="2.50472" stroke-miterlimit="10"/>
<path d="M230.26 177.664C230.26 177.664 221.708 242.253 257.057 343.886C261.191 355.782 307.394 342.004 307.394 342.004C307.695 340.878 309.002 335.948 309.126 334.821C312.934 300.109 307.973 265.02 301.338 230.763C298.86 218.014 296.152 205.318 293.196 192.697C290.74 182.055 287.162 171.409 285.483 160.617C284.984 157.587 284.781 154.658 284.405 151.8L230.26 177.673V177.664Z" fill="#203170"/>
<path d="M285.959 151.04C285.959 151.04 268.828 152.091 243.732 160.158C215.323 169.289 167.234 198.104 165.025 277.42C163.784 321.883 208.582 376.262 240.357 386.93C264.887 395.165 279.721 352.558 279.721 352.558C279.721 352.558 213.958 313.145 222.267 267.963C229.649 227.847 274.045 223.39 273.727 222.431C273.409 221.473 285.959 151.044 285.959 151.044V151.04Z" fill="#203170"/>
<path d="M287.688 367.475C287.688 367.475 285.306 384.673 256.743 393.733" stroke="#3572EF" stroke-width="2.50472" stroke-miterlimit="10" stroke-linecap="round"/>
<path d="M303.77 415.604C304.428 414.659 305.091 413.709 305.749 412.764C306.858 411.173 307.967 409.583 309.027 407.957C311.625 403.982 313.935 399.816 315.932 395.504" stroke="#3572EF" stroke-width="2.50472" stroke-miterlimit="10" stroke-linecap="round"/>
<path d="M233.025 244.58C239.598 235.599 252.055 229.402 258.902 226.619" stroke="#3572EF" stroke-width="2.50472" stroke-miterlimit="10" stroke-linecap="round"/>
<path d="M290.767 164.403C305.071 192.551 315.386 193.656 324.764 193.762C335.185 193.881 336.413 162.927 332.071 152.493C326.518 151.61 318.88 149.958 318.88 149.958L312.382 126.934L295.807 127.671L285.956 151.049C284.689 151.384 288.112 159.186 290.767 164.407V164.403Z" fill="#FFF5A0"/>
<path d="M332.579 117.714C332.16 119.751 331.48 121.668 330.587 123.444C329.796 125.03 328.825 126.501 327.711 127.83C322.406 134.209 313.836 137.496 305.142 135.649C292.592 132.981 284.53 120.63 287.137 108.058C289.743 95.4898 302.028 87.4587 314.578 90.1225C327.128 92.7907 335.19 105.142 332.584 117.714H332.579Z" fill="#FFF5A0"/>
<path d="M331.237 89.6145L327.804 98.2286L308.858 98.6925L306.94 103.013C306.94 103.013 292.022 103.013 286.646 109.4C286.646 109.4 287.172 96.8813 289.385 91.7128C291.594 86.5443 320.582 83.483 331.241 89.6145H331.237Z" fill="#203170"/>
<path d="M308.381 112.572C307.705 109.396 304.696 103.618 299.241 103.044C293.997 102.491 285.586 109.48 291.28 122.582C297.982 138.004 309.14 126.377 309.14 126.377C309.14 126.377 309.264 116.716 308.381 112.572Z" fill="#FFF5A0"/>
<path d="M306.296 117.215L293.662 108.693C293.662 108.693 296.462 105.619 300.385 106.785C304.303 107.951 306.495 112.66 306.3 117.215H306.296Z" fill="white"/>
<path d="M303.103 112.537C303.103 112.537 297.683 115.39 298.743 122.118C299.958 129.814 306.566 123.324 306.23 116.495C306.005 111.901 303.103 112.537 303.103 112.537Z" fill="white"/>
<path d="M351.753 341.615C351.683 342.521 351.837 343.736 352.734 343.877C353.039 343.926 353.344 343.815 353.635 343.709C361.909 340.723 370.908 339.769 379.624 340.939C380.997 341.125 382.499 341.337 383.679 340.608C384.712 339.972 385.229 338.761 385.627 337.613C386.948 333.787 387.619 329.767 388.238 325.77C392.333 299.203 394.334 272.194 392.032 245.415C389.735 218.636 383.047 192.034 370.497 168.268C368.058 163.647 365.355 159.08 361.622 155.422C357.121 151.009 333.726 152.811 333.726 152.811C338.205 167.716 342.521 181.569 345.622 196.862C351.806 227.374 354.121 258.571 354.002 289.67C353.936 307.004 353.114 324.334 351.753 341.615Z" fill="#203170"/>
<path d="M390.09 228.805C387.143 211.232 381.644 194.088 373.816 178.079" stroke="#3572EF" stroke-width="2.50472" stroke-miterlimit="10" stroke-linecap="round"/>
<path d="M314.709 406.341C329.742 390.994 340.322 371.327 344.841 350.327" stroke="#3572EF" stroke-width="2.50472" stroke-miterlimit="10" stroke-linecap="round"/>
<path d="M389.542 340.405C400.087 353.229 414.864 362.669 430.718 366.901C455.235 373.439 482.487 308.373 482.487 308.373C482.487 308.373 459.798 283.604 468.112 247.739C475.498 215.884 476.801 205.865 476.501 205.114C476.174 204.337 487.845 153.646 487.845 153.646C487.845 153.646 466.959 152.193 445.296 162.035C423.182 172.076 389.096 222.241 377.5 269.703C375.495 277.817 374.169 285.831 373.67 293.57C372.517 311.254 378.879 327.532 389.547 340.405H389.542Z" fill="#3ABEF9"/>
<path d="M539.459 308.373C539.459 308.373 566.684 373.439 591.228 366.901C611.641 361.467 630.296 347.292 640.417 328.508C646.076 318.065 649.084 306.169 648.258 293.57C647.206 277.367 642.524 259.887 635.787 243.078C620.511 204.884 594.616 170.198 576.632 162.035C554.995 152.193 534.083 153.646 534.083 153.646C534.083 153.646 545.78 204.337 545.454 205.114C545.127 205.865 546.456 215.884 553.82 247.739C562.134 283.604 539.468 308.373 539.468 308.373H539.459Z" fill="#3ABEF9"/>
<path d="M430.701 330.752C430.701 330.752 411.361 482.816 415.937 545.995H633.786C633.786 545.995 607.091 360.085 596.432 343.886C585.773 327.687 430.701 330.752 430.701 330.752Z" fill="#203170"/>
<path d="M604.122 502.929C603.884 502.766 603.628 502.598 603.34 502.607C602.74 502.624 602.448 503.335 602.311 503.923C600.456 511.914 599.338 520.073 598.98 528.268C599.117 525.105 621.907 523.285 623.493 519.207C624.818 515.797 607.263 505.089 604.122 502.933V502.929Z" stroke="#3ABEF9" stroke-width="2.50472" stroke-linecap="round" stroke-linejoin="round"/>
<path d="M582.901 489.124C577.361 484.035 572.047 478.699 566.98 473.142C567.042 473.212 578.894 469.7 579.985 469.537C582.782 469.109 590.751 467.372 593.225 469.148C598.292 472.793 585.799 486.045 582.901 489.124Z" stroke="#3ABEF9" stroke-width="2.50472" stroke-linecap="round" stroke-linejoin="round"/>
<path d="M528.929 457.296C528.641 457.592 528.297 457.91 527.882 457.879C527.427 457.848 527.122 457.411 526.888 457.022C522.713 450.118 518.539 443.213 514.36 436.313C516.149 434.983 518.313 434.276 520.456 433.654C525.894 432.081 531.46 430.955 537.083 430.287C541.536 429.757 548.379 427.257 547.155 432.775C545.304 441.124 534.693 451.359 528.924 457.292L528.929 457.296Z" stroke="#3ABEF9" stroke-width="2.50472" stroke-linecap="round" stroke-linejoin="round"/>
<path d="M546.474 506.432C547.534 506.419 548.974 505.995 548.837 504.943C548.798 504.634 548.608 504.369 548.426 504.117C545.71 500.376 532.011 477.303 528.049 480.263C526.047 481.756 526.242 488.656 525.972 490.821C525.31 496.144 524.082 501.131 522.946 506.304C530.385 507.523 538.911 506.529 546.478 506.432H546.474Z" stroke="#3ABEF9" stroke-width="2.50472" stroke-linecap="round" stroke-linejoin="round"/>
<path d="M443.781 503.636C436.73 504.78 429.693 506.039 422.683 507.408C421.464 507.647 420.054 508.044 419.617 509.206C419.052 510.704 420.518 512.126 421.79 513.102C424.887 515.475 435.436 528.537 438.144 527.132C441.974 525.145 441.201 504.055 443.781 503.636Z" stroke="#3ABEF9" stroke-width="2.50472" stroke-linecap="round" stroke-linejoin="round"/>
<path d="M491.658 488.771C485.292 489.208 478.922 489.645 472.556 490.083C469.999 490.259 467.401 490.432 464.901 489.884C464.309 489.756 463.699 489.57 463.271 489.142C462.471 488.347 462.586 487.044 462.794 485.935C463.717 481.102 467.825 465.742 474.628 467.341C480.667 468.76 488.455 483.823 491.662 488.771H491.658Z" stroke="#3ABEF9" stroke-width="2.50472" stroke-linecap="round" stroke-linejoin="round"/>
<path d="M464.313 426.104C469.093 430.8 474.062 435.301 479.209 439.595C480.666 440.81 482.31 442.073 484.205 442.051C484.466 442.051 484.748 442.012 484.934 441.826C485.133 441.627 485.155 441.318 485.168 441.035C485.389 436.132 489.183 418.572 484.134 416.606C480.459 415.175 464.088 425.883 464.313 426.104Z" stroke="#3ABEF9" stroke-width="2.50472" stroke-linecap="round" stroke-linejoin="round"/>
<path d="M471.792 515.435C472.782 522.375 473.873 529.297 475.061 536.206C477.831 533.962 496.848 521.107 495.885 518.425C494.401 514.286 472.45 520.056 471.792 515.435Z" stroke="#3ABEF9" stroke-width="2.50472" stroke-linecap="round" stroke-linejoin="round"/>
<path d="M584.415 438.703C590.701 434.444 596.528 429.51 601.763 424.01C601.021 424.788 588.395 409.269 582.962 414.062C577.603 418.789 583.306 433.044 584.415 438.703Z" stroke="#3ABEF9" stroke-width="2.50472" stroke-linecap="round" stroke-linejoin="round"/>
<path d="M445.062 453.612C438.776 456.545 432.494 459.479 426.208 462.412C425.135 462.911 423.628 463.308 422.966 462.332C422.656 461.877 422.678 461.281 422.709 460.729C423.103 454.217 422.89 439.101 428.823 434.621C433.93 430.765 442.385 449.367 445.058 453.612H445.062Z" stroke="#3ABEF9" stroke-width="2.50472" stroke-linecap="round" stroke-linejoin="round"/>
<path d="M568.535 528.718C567.758 528.241 566.914 527.782 565.999 527.773C565.204 527.764 564.453 528.1 563.742 528.453C559.47 530.565 555.663 533.604 552.645 537.288C559.289 537.964 565.995 537.986 572.648 537.35C580.206 536.626 571.141 530.322 568.54 528.718H568.535Z" stroke="#3ABEF9" stroke-width="2.50472" stroke-linecap="round" stroke-linejoin="round"/>
<path d="M423.38 411.385C436.553 419.827 452.275 423.167 491.043 425.473C530.813 427.827 591.108 420.463 605.005 414.853C615.899 410.471 620.259 406.239 620.259 406.239L581.986 189.189L542.264 154.777L540.709 154.026L508.752 147.09C508.752 147.09 474.216 154.98 465.125 159.411C462.245 160.811 438.479 176.016 429.335 226.632C426.905 240.057 416.89 382.309 415.287 398.287C414.788 403.372 417.615 407.728 423.375 411.385H423.38Z" fill="#3ABEF9"/>
<path d="M490.901 160.542C499.462 162.313 509.821 164.469 518.997 166.413C530.054 168.758 535.54 162.132 531.198 151.698C527.2 150.859 517.777 148.186 517.777 148.186L511.279 125.162L494.705 125.9L489.545 149.061C484.248 151.557 485.167 159.358 490.901 160.546V160.542Z" fill="#3572EF"/>
<path d="M531.475 115.947C531.056 117.984 530.375 119.901 529.483 121.677C528.692 123.263 527.72 124.734 526.607 126.063C521.302 132.442 512.732 135.729 504.038 133.882C491.488 131.214 483.426 118.863 486.032 106.29C488.639 93.7227 500.924 85.6916 513.474 88.3554C526.024 91.0236 534.086 103.375 531.48 115.947H531.475Z" fill="#3572EF"/>
<path d="M480.759 96.563C482.778 93.4265 486.475 90.9748 489.519 88.9339C492.876 86.681 496.37 84.6269 499.975 82.798C507.189 79.1404 514.853 76.3617 522.743 74.5638C524.916 74.0691 527.134 73.645 529.36 73.7775C533.089 73.9984 536.698 75.8626 539.048 78.7781C539.9 79.8339 540.612 81.0752 540.709 82.427C540.788 83.5623 540.435 84.6843 539.993 85.7357C538.054 90.352 534.427 94.0936 530.319 96.9517C528.3 98.3565 526.149 99.6111 523.94 100.738C522.5 101.471 521.038 102.147 519.567 102.774C516.302 104.17 514.045 104.806 513.02 108.804C512.282 111.689 512.962 114.75 512.256 117.643C512.057 118.469 511.712 119.3 511.059 119.834C510.405 120.369 509.375 120.515 508.717 119.976C508.382 119.702 508.187 119.3 508.002 118.907C507.454 117.763 506.822 115.112 505.435 115.112C504.644 115.112 503.182 117.034 502.608 117.599C500.532 119.64 498.813 121.796 497.422 124.376C495.814 127.362 494.011 130.414 492.063 133.188C491.025 134.664 489.62 135.839 488.194 136.948C486.683 138.123 485.017 139.285 483.105 139.408C482.181 139.466 481.121 139.187 480.688 138.361C480.304 137.633 480.538 136.745 480.838 135.98C482.146 132.676 484.695 129.897 487.849 128.276C487.849 128.272 487.84 128.263 487.836 128.259C484.439 123.51 481.806 118.213 480.092 112.634C478.466 107.333 477.768 101.215 480.759 96.5674V96.563Z" fill="#FFF5A0"/>
<path d="M507.281 110.805C506.605 107.629 503.597 101.851 498.141 101.276C492.898 100.724 484.487 107.713 490.181 120.815C496.882 136.237 508.041 124.61 508.041 124.61C508.041 124.61 508.165 114.949 507.281 110.805Z" fill="#3572EF"/>
<path d="M505.192 115.448L492.558 106.926C492.558 106.926 495.358 103.852 499.281 105.018C503.199 106.184 505.39 110.893 505.196 115.448H505.192Z" fill="#635EA6"/>
<path d="M502.002 110.765C502.002 110.765 496.582 113.615 497.642 120.347C498.857 128.042 505.466 121.553 505.13 114.723C504.905 110.129 502.002 110.765 502.002 110.765Z" fill="#635EA6"/>
<path d="M526.396 150.086C526.396 150.086 529.542 143.287 524.855 141.047C520.163 138.808 493.203 134.227 484.249 141.047C484.249 141.047 481.029 143.38 483.224 151.433L485.543 161.832C485.543 161.832 504.207 171.634 505.206 171.745C506.204 171.851 527.766 172.491 529.029 171.745C530.288 170.998 534.98 160.343 535.62 159.597C536.261 158.85 532.691 152.131 532.691 152.131L526.401 150.09L526.396 150.086Z" fill="#3ABEF9"/>
<path d="M573.584 181.905C581.111 195.82 596.277 256.388 598.335 272.079C598.635 274.372 598.865 276.762 598.114 278.944C597.558 280.561 596.497 281.952 595.455 283.309C588.091 292.908 560.15 302.507 552.786 312.111C551.245 332.648 557.584 353.503 570.31 369.697" stroke="#203170" stroke-width="2.50472" stroke-linecap="round" stroke-linejoin="round"/>
<path d="M447.403 177.744C432.573 191.734 419.784 220.722 422.501 268.294C422.563 269.411 422.033 270.529 422.307 271.616C422.625 272.883 423.575 273.873 424.48 274.818C433.987 284.758 459.171 305.714 465.294 318.026C473.484 334.49 458.742 354.916 446.793 368.898" stroke="#203170" stroke-width="2.50472" stroke-linecap="round" stroke-linejoin="round"/>
<path d="M524.744 545.995C510.1 511.808 513.034 524.88 501.327 474.365" stroke="#3572EF" stroke-width="2.50472" stroke-linecap="round" stroke-linejoin="round"/>
<path d="M486.138 359.908C486.474 360.553 486.81 361.251 486.735 361.976C486.646 362.81 486.037 363.482 485.458 364.087C478.399 371.433 470.549 378.749 460.68 381.28C458.423 381.859 455.993 382.164 453.789 381.408C450.06 380.127 447.975 376.262 446.248 372.719C445.723 371.641 445.179 370.506 445.215 369.304C445.254 367.988 445.97 366.804 446.663 365.686C449.999 360.337 453.334 354.983 456.669 349.633C458.63 346.483 462.615 336.566 466.67 336.305C470.571 336.058 475.417 343.744 477.462 346.377C478.571 347.804 485.299 359.913 486.138 359.913V359.908Z" fill="#3572EF"/>
<path d="M532.4 359.908C532.064 360.553 531.729 361.251 531.804 361.976C531.892 362.81 532.502 363.482 533.08 364.087C540.139 371.433 547.989 378.749 557.858 381.28C560.115 381.859 562.545 382.164 564.749 381.408C568.478 380.127 570.563 376.262 572.29 372.719C572.816 371.641 573.359 370.506 573.324 369.304C573.284 367.988 572.568 366.804 571.875 365.686C568.54 360.337 565.204 354.983 561.869 349.633C559.908 346.483 555.923 336.566 551.868 336.305C547.967 336.058 543.121 343.744 541.076 346.377C539.967 347.804 533.239 359.913 532.4 359.913V359.908Z" fill="#3572EF"/>
<path d="M489.144 358.34C480.441 372.979 465.104 383.493 448.308 386.329" stroke="#203170" stroke-width="2.50472" stroke-linecap="round" stroke-linejoin="round"/>
<path d="M528.681 357.196C529.361 359.281 530.797 361.026 532.263 362.66C542.552 374.137 555.8 382.932 570.369 387.959" stroke="#203170" stroke-width="2.50472" stroke-linecap="round" stroke-linejoin="round"/>
<path d="M389.541 340.405C394.803 337.701 400.258 329.286 403.063 325.027C406.12 320.318 408.647 314.96 408.475 309.35C408.276 303.09 404.742 297.453 401.084 292.369C394.697 283.428 387.236 274.862 377.517 269.729L377.491 269.703C375.485 277.818 374.16 285.831 373.661 293.57C372.508 311.254 378.869 327.532 389.537 340.405H389.541Z" fill="#A7E6FF"/>
<path d="M612.064 283.98C612.391 288.362 614.569 292.347 616.795 296.15C622.732 306.266 629.394 318.366 637.933 326.529C638.808 327.355 639.634 328.031 640.411 328.508C646.07 318.065 649.078 306.169 648.252 293.57C647.201 277.367 642.518 259.887 635.782 243.078C633.127 243.555 630.52 245.234 628.493 247.111C621.407 253.724 617.524 263.014 614.317 272.181C612.992 275.989 611.737 279.942 612.064 283.975V283.98Z" fill="#A7E6FF"/>
<path d="M735.71 378.024C735.71 378.024 745.937 401.309 781.003 419.509C816.064 437.705 780.256 352.023 780.256 352.023C780.256 352.023 764.269 348.825 763.417 348.608C762.564 348.396 735.706 378.024 735.706 378.024H735.71Z" fill="#FFF5A0"/>
<path d="M832.578 128.426C849.926 121.252 869.539 119.68 887.806 123.996C894.684 125.621 901.593 128.192 906.646 133.131C910.635 137.032 913.224 142.191 914.814 147.541C917.213 155.603 917.43 164.544 914.046 172.244C909.597 182.369 899.724 188.986 889.798 193.863C878.458 199.429 866.377 203.48 853.977 205.874C842.535 208.078 829.583 208.525 820.435 201.311C815.584 197.49 812.434 191.963 809.439 186.565C807.575 183.208 805.72 179.82 804.531 176.166C801.086 165.586 801.391 154.37 808.397 145.597C814.639 137.778 823.421 132.212 832.587 128.422L832.578 128.426Z" fill="#3572EF"/>
<path d="M778.552 355.434C790.519 342.72 786.013 329.035 784.308 273.321C783.574 249.303 802.353 221.097 790.117 160.193C789.458 156.924 760.789 179.383 750.204 192.15C708 243.083 707.5 261.01 702.725 286.503C693.771 334.314 708.852 361.826 719.512 370.352C729.31 378.188 742.862 379.125 749.692 377.362C770.98 371.871 778.552 355.429 778.552 355.429V355.434Z" fill="#3572EF"/>
<path d="M983.17 545.996H912.45C911.35 544.516 907.993 538.658 903.284 530.168C883.701 494.828 858.941 462.929 858.941 462.929C865.576 513.872 869.574 525.609 875.759 541.839C875.785 541.914 875.834 541.989 875.86 542.091C876.836 544.622 877.389 545.996 877.389 545.996H814.324C763.134 416.793 774.752 287.585 774.752 287.585L870.873 329.41L874.005 330.762L910.233 346.537L983.17 545.996Z" fill="#3ABEF9"/>
<path d="M773.801 336.27C770.448 319.581 781.678 163.17 788.229 159.985C797.342 155.555 814.323 152.648 814.323 152.648L860.667 151.044L962.495 237.663C962.495 237.663 899.413 334.914 899.404 334.972C899.4 335.007 897.359 348.542 897.302 348.613C884.071 365.086 849.566 378.515 826.113 374.349C775.131 365.285 774.46 339.358 773.801 336.275V336.27Z" fill="#3572EF"/>
<path d="M872.687 358.203C872.687 358.203 864.638 362.254 860.667 370.352C860.667 370.352 873.477 399.405 890.529 404.092L907.819 388.044L872.682 358.203H872.687Z" fill="#FFF5A0"/>
<path d="M860.672 151.04C860.672 151.04 877.807 152.091 902.898 160.158C931.307 169.289 990.02 210.575 992.234 289.891C993.475 334.353 956.085 394.427 911.053 393.733C878.085 393.225 866.732 357.638 867.002 338.828C867.108 331.389 874.551 328.54 881.447 325.748C898.715 318.755 930.473 301.164 924.363 267.963C916.981 227.847 872.586 223.39 872.904 222.431C873.222 221.473 860.672 151.044 860.672 151.044V151.04Z" fill="#3572EF"/>
<path d="M860.672 370.352C860.672 370.352 869.622 397.153 894.515 405.555" stroke="#203170" stroke-width="2.50472" stroke-linecap="round" stroke-linejoin="round"/>
<path d="M858.94 461.308C858.088 460.53 857.235 459.753 856.378 458.98C854.943 457.677 853.507 456.369 852.115 455.022C848.701 451.722 828.853 435.041 819.262 416.793" stroke="#203170" stroke-width="2.50472" stroke-linecap="round" stroke-linejoin="round"/>
<path d="M887.725 226.619C894.572 229.402 901.04 233.131 906.884 237.659C921.325 248.852 929.608 265.162 927.196 283.274C925.676 294.693 919.098 305.096 910.285 312.518C901.472 319.939 890.561 324.564 879.35 327.21C872.653 328.792 868.275 332.061 866.998 338.824C865.722 345.587 867.904 352.469 870.06 359.007C871.027 361.949 871.999 364.887 872.966 367.829" stroke="#203170" stroke-width="2.50472" stroke-linecap="round" stroke-linejoin="round"/>
<path d="M813.829 161.363C813.829 161.363 811.912 169.995 816.175 171.166C827.073 174.161 869.353 152.082 869.353 152.082C866.746 151.048 855.618 150.669 855.618 150.669L849.12 127.645L832.546 128.382L827.386 151.543C822.09 154.039 816.899 156.376 813.829 161.363Z" fill="#FFF5A0"/>
<path d="M869.313 118.43C868.893 120.467 868.213 122.384 867.32 124.16C866.53 125.745 865.558 127.216 864.444 128.546C859.139 134.925 850.569 138.212 841.876 136.365C829.325 133.697 821.263 121.346 823.87 108.773C826.476 96.2056 838.761 88.1746 851.311 90.8383C863.861 93.5065 871.923 105.858 869.317 118.43H869.313Z" fill="#FFF5A0"/>
<path d="M832.599 132.61C830.311 134.112 827.585 134.951 824.846 134.995C823.335 135.022 821.772 134.788 820.499 133.979C819.223 133.171 818.299 131.691 818.476 130.194C818.653 128.696 820.15 127.38 821.63 127.693C819.921 127.075 818.101 126.372 817.08 124.875C816.06 123.373 816.404 120.842 818.145 120.321C816.016 119.322 813.864 117.922 813.038 115.722C812.208 113.522 813.458 110.483 815.804 110.31C813.71 108.19 811.541 105.955 810.67 103.105C809.8 100.256 810.701 96.6206 813.422 95.4058C815.79 94.35 818.573 95.4323 820.689 96.9298C818.759 92.7155 819.846 87.3218 823.251 84.1765C824.351 83.1605 825.721 82.3521 827.218 82.2681C828.711 82.1842 830.315 82.9661 830.863 84.3576C832.347 82.0428 833.929 79.7369 836.08 78.0273C838.231 76.3177 841.05 75.2575 843.744 75.7876C846.439 76.3177 848.82 78.743 848.736 81.4906C850.781 80.4525 853.313 80.4393 855.367 81.4597C857.421 82.4802 858.945 84.5034 859.356 86.7563C861.64 86.0142 863.945 85.272 866.331 84.9981C867.965 84.8126 869.728 84.8789 871.093 85.7933C872.427 86.6856 873.174 88.2671 873.443 89.853C874.079 93.6255 872.118 97.6985 868.774 99.5494C865.425 101.4 860.933 100.901 858.079 98.3567C858.437 100.243 856.515 101.767 854.704 102.403C852.676 103.114 850.485 103.335 848.356 103.048C847.989 107.236 844.274 110.871 840.078 111.15C840.502 114.591 839.552 118.182 837.489 120.965C837.246 121.297 836.981 121.624 836.844 122.012C836.681 122.481 836.716 122.993 836.725 123.492C836.791 128.025 833.867 132.451 829.674 134.169" fill="#203170"/>
<path d="M845.118 113.288C844.442 110.112 841.434 104.334 835.978 103.759C830.735 103.207 822.324 110.196 828.018 123.298C834.719 138.72 845.878 127.093 845.878 127.093C845.878 127.093 846.001 117.432 845.118 113.288Z" fill="#FFF5A0"/>
<path d="M843.029 117.931L830.395 109.409C830.395 109.409 833.195 106.335 837.118 107.501C841.036 108.667 843.227 113.376 843.033 117.931H843.029Z" fill="white"/>
<path d="M839.836 113.253C839.836 113.253 834.415 116.106 835.476 122.834C836.69 130.529 843.299 124.036 842.963 117.211C842.738 112.616 839.836 113.253 839.836 113.253Z" fill="white"/>
<path d="M831.611 195.025C825.06 199.111 821.897 207.928 824.367 215.248C826.315 221.026 831.275 225.757 831.753 231.832C832.097 236.196 829.782 240.667 826.019 242.906C823.267 244.541 819.569 245.349 818.35 248.304C817.882 249.44 817.886 250.712 817.974 251.94C818.315 256.627 819.763 261.23 822.171 265.263" stroke="#3ABEF9" stroke-width="2.50472" stroke-linecap="round" stroke-linejoin="round"/>
<path d="M809.881 191.619C811.551 194.632 812.602 197.989 812.951 201.417C813.247 204.306 812.964 207.456 811.127 209.709C808.909 212.426 805.07 213.128 802.221 215.178C796.849 219.043 796.474 228.112 801.505 232.41C802.83 233.541 804.421 234.35 805.68 235.56C808.988 238.732 809.147 244.612 806.015 247.956C805.057 248.98 803.776 249.798 802.371 249.851C800.966 249.904 799.482 249.02 799.168 247.651" stroke="#3ABEF9" stroke-width="2.50472" stroke-linecap="round" stroke-linejoin="round"/>
<path d="M781.543 187.855C771.091 236.651 768.661 291.662 774.775 341.187" stroke="#203170" stroke-width="2.50472" stroke-linecap="round" stroke-linejoin="round"/>
<path d="M754.825 164.12C761.725 193.236 759.229 224.26 749.36 252.506C746.113 261.796 741.881 271.112 734.544 277.677C732.331 279.656 729.702 281.414 726.743 281.613C722.63 281.891 718.809 279.011 716.821 275.402C714.833 271.792 714.334 267.569 714.038 263.457C713.062 249.718 713.963 235.922 713.932 222.149C713.839 181.764 705.724 141.891 701.024 101.78C700.697 99.0018 700.41 96.0686 701.554 93.5197C704.969 85.9083 711.308 92.7245 714.89 95.9272C719.785 100.305 724.322 105.089 728.461 110.187C736.629 120.25 743.26 131.546 748.19 143.526C750.937 150.201 753.159 157.092 754.82 164.111L754.825 164.12Z" fill="#9B0A0A"/>
<path d="M646.866 403.774C642.047 403.774 557.973 358.168 558.101 301.474C558.251 235.755 588.701 189.185 645.899 167.217C648.969 166.038 666.361 187.303 658.36 223.394C658.36 223.394 594.068 257.714 599.837 309.854C604.149 348.803 657.318 372.242 657.318 372.242L646.857 403.779L646.866 403.774Z" fill="#EC6060"/>
<path d="M703.007 545.996H667.76C667.513 538.597 666.32 494.134 674.046 439.596C674.046 439.596 643.738 496.63 624.42 531.489C620.541 538.486 617.612 543.633 616.115 545.996H583.885L637.986 341.474L653.301 334.804L656.389 333.47L734.336 288.667C734.336 288.667 762.387 345.821 761.455 377.596C760.028 426.229 733.422 469.463 703.007 545.991V545.996Z" fill="#3572EF"/>
<path d="M723.611 371.712L701.744 392.735C701.744 392.735 708.891 408.713 715.2 416.7C721.508 424.687 729.495 410.52 734.12 396.158L723.606 371.708L723.611 371.712Z" fill="#EC6060"/>
<path d="M626.373 237.133V238.219C626.373 241.753 626.496 247.015 626.695 253.411C626.722 254.228 626.744 255.068 626.77 255.929C627.044 264.256 627.411 274.235 627.83 284.661C627.857 285.5 627.905 286.339 627.928 287.179C628.272 295.528 628.621 304.102 628.988 312.301C629.036 313.14 629.063 313.957 629.111 314.77C629.434 321.909 629.73 328.703 629.999 334.782C630.048 335.621 630.074 336.438 630.123 337.251C630.764 351.034 631.21 360.522 631.21 360.522L633.012 360.275L755.81 343.749L763.54 342.711C761.637 337.251 759.194 331.075 756.402 324.652C756.106 323.888 755.761 323.119 755.439 322.355C753.19 317.191 750.77 311.881 748.322 306.695C747.978 305.931 747.629 305.189 747.284 304.447C743.75 297.034 740.269 289.895 737.181 283.768C736.784 282.978 736.417 282.213 736.046 281.471C730.807 271.121 727.052 264.079 727.052 264.079C727.052 263.982 727.078 263.859 727.078 263.757C727.154 262.94 727.251 262.127 727.352 261.31C727.821 257.232 728.536 253.208 729.429 249.228C729.601 248.411 729.8 247.598 729.998 246.807C731.257 241.546 732.79 236.43 734.518 231.492C734.787 230.701 735.061 229.937 735.357 229.168C745.486 201.205 760.528 179.612 757.837 177.912C740.225 166.722 721.747 160.988 721.747 160.988L666.461 157.529L645.611 167.557C645.611 167.557 643.486 169.063 640.646 173.163C640.129 173.954 639.559 174.819 638.967 175.805C635.906 180.942 632.394 188.849 629.876 200.604C629.677 201.444 629.505 202.283 629.359 203.175C628.542 207.253 627.875 211.745 627.384 216.711C627.287 217.528 627.212 218.367 627.137 219.229C626.717 223.946 626.47 229.084 626.395 234.641C626.368 235.458 626.368 236.271 626.368 237.111L626.373 237.133Z" fill="#FFF5A0"/>
<path d="M630.005 334.782C630.053 335.621 630.08 336.438 630.128 337.251C635.562 337.525 641.071 337.697 646.654 337.697C647.321 337.724 648.015 337.724 648.682 337.724C678.005 337.724 709.325 334.437 743.393 327.842C745.664 327.396 747.939 326.954 750.161 326.411C752.286 325.916 754.384 325.324 756.412 324.657C756.116 323.893 755.771 323.124 755.449 322.36C753.474 323 751.398 323.57 749.299 324.038C747.223 324.555 745.076 324.979 742.925 325.399C710.465 331.698 680.475 334.985 652.366 335.232H652.34C644.755 335.308 637.32 335.157 630.009 334.786L630.005 334.782Z" fill="#A7E6FF"/>
<path d="M628.993 312.301C629.042 313.14 629.068 313.958 629.117 314.77C641.914 315.831 655.449 316.551 669.356 316.551C675.015 316.551 680.744 316.427 686.5 316.158C705.226 315.318 724.318 312.92 743.022 308.131C744.802 307.685 746.556 307.217 748.332 306.7C747.987 305.935 747.638 305.193 747.294 304.451C745.566 304.946 743.813 305.392 742.059 305.834C725.259 310.106 708.119 312.429 691.222 313.467H691.196C669.607 314.726 648.483 313.913 628.993 312.306V312.301Z" fill="#A7E6FF"/>
<path d="M627.831 284.661C627.858 285.5 627.906 286.339 627.928 287.179C642.131 288.685 656.412 289.449 670.69 289.449C690.206 289.449 709.718 288.018 729.111 285.177C731.779 284.784 734.496 284.36 737.191 283.768C736.793 282.978 736.427 282.213 736.055 281.471C733.635 281.988 731.165 282.386 728.744 282.73C695.295 287.62 661.404 288.287 627.835 284.656L627.831 284.661Z" fill="#A7E6FF"/>
<path d="M626.695 253.411C626.722 254.228 626.744 255.068 626.77 255.929C630.994 256.645 635.243 257.263 639.466 257.758C650.634 259.119 661.947 259.808 672.916 260.475L727.088 263.761C727.163 262.944 727.26 262.131 727.361 261.314L673.066 258.005C662.146 257.338 650.859 256.645 639.767 255.315C635.42 254.798 631.047 254.153 626.7 253.411H626.695Z" fill="#A7E6FF"/>
<path d="M626.373 237.133C661.033 237.553 695.618 241.63 729.434 249.237C729.606 248.42 729.805 247.607 730.003 246.816C696.011 239.161 661.28 235.008 626.4 234.664C626.373 235.481 626.373 236.294 626.373 237.133Z" fill="#A7E6FF"/>
<path d="M627.138 219.246C663.229 215.045 700.309 219.197 734.523 231.5C734.792 230.709 735.066 229.945 735.362 229.177C700.95 216.799 663.701 212.576 627.385 216.728C627.288 217.545 627.213 218.385 627.138 219.246Z" fill="#A7E6FF"/>
<path d="M629.364 203.189C665.283 197.283 702.832 199.929 737.363 211.043C737.487 211.092 737.637 211.118 737.761 211.118C738.278 211.118 738.75 210.774 738.923 210.252C739.144 209.612 738.772 208.918 738.132 208.698C703.521 197.557 665.923 194.84 629.885 200.618C629.687 201.457 629.514 202.297 629.369 203.189H629.364Z" fill="#A7E6FF"/>
<path d="M638.973 175.818C654.487 174.188 670.986 175.301 688.652 176.905C707.426 178.61 730.768 180.708 750.484 190.219C750.656 190.316 750.828 190.343 751.027 190.343C751.473 190.343 751.915 190.095 752.14 189.649C752.436 189.031 752.167 188.288 751.57 187.992C731.462 178.283 707.846 176.158 688.873 174.431C671.803 172.898 655.794 171.789 640.651 173.172C640.134 173.962 639.565 174.828 638.973 175.813V175.818Z" fill="#A7E6FF"/>
<path d="M729.761 407.277C733.167 403.774 826.429 362.391 826.296 305.697C826.146 239.978 789.15 186.976 731.952 165.004C728.882 163.824 711.49 185.09 719.49 221.181C719.49 221.181 785.841 248.035 780.072 300.175C775.76 339.124 723.616 371.712 723.616 371.712L729.765 407.277H729.761Z" fill="#EC6060"/>
<path d="M697.924 383.922C704.537 400.828 713.725 416.722 725.065 430.893C725.781 431.786 726.664 432.749 727.804 432.735" stroke="#203170" stroke-width="2.46938" stroke-miterlimit="10" stroke-linecap="round"/>
<path d="M673.853 438.368C665.425 432.347 657.751 425.261 651.081 417.336" stroke="#203170" stroke-width="2.46938" stroke-miterlimit="10" stroke-linecap="round"/>
<path d="M664.455 138.097C661.721 129.73 658.364 121.248 658.894 112.462C659.716 98.7853 670.008 87.4941 683.42 84.6934C686.508 84.0485 692.794 87.1584 695.661 88.4792C699.212 90.1137 699.318 89.6101 700.895 93.1883C705.688 104.077 706.696 116.274 706.298 128.166C706.011 136.846 704.964 145.677 701.306 153.553C699.725 156.964 697.622 160.197 694.742 162.614C692.529 164.469 689.918 165.79 687.245 166.881C683.499 168.41 679.448 169.536 675.442 168.997C668.988 168.127 666.982 164.712 667.61 158.947C668.383 151.822 666.66 144.824 664.455 138.092V138.097Z" fill="#9B0A0A"/>
<path d="M711.082 169.143C708.67 177.421 683.437 185.496 663.081 182.409C643.163 179.391 664.044 158.528 664.044 158.528C674.024 154.366 681.047 151.53 681.047 151.53L684.06 128.528L700.409 129.253L705.498 152.096C710.724 154.561 713.207 161.854 711.082 169.143Z" fill="#EC6060"/>
<path d="M663.301 115.806C663.584 117.842 664.127 119.777 664.891 121.584C665.567 123.201 666.429 124.712 667.436 126.099C672.242 132.738 680.454 136.551 689.117 135.314C701.627 133.529 710.348 121.893 708.594 109.334C706.844 96.7753 695.284 88.0375 682.778 89.8266C670.272 91.6112 661.552 103.247 663.301 115.806Z" fill="#EC6060"/>
<path d="M666.835 97.1597C667.047 97.4469 667.277 97.7208 667.511 97.9902C672.56 103.83 678.82 108.535 683.758 114.468C686.117 117.299 688.088 120.427 689.704 123.731C691.259 126.907 691.851 130.136 693.11 133.361C696.03 140.827 696.98 149.034 695.739 156.959C694.595 164.253 691.688 171.131 689.307 178.119C685.565 189.106 683.078 201.015 685.83 212.293C686.4 214.634 687.217 216.967 688.688 218.875C688.861 219.096 689.064 219.326 689.338 219.374C689.872 219.472 690.243 218.871 690.447 218.367C692.85 212.399 694.568 206.175 697.002 200.22C699.41 194.332 702.595 189.543 706.871 184.883C711.081 180.297 715.662 175.566 718.754 170.097C725.906 157.454 726.869 140.049 725.283 125.944C724.943 122.923 724.457 119.914 723.825 116.937C722.663 111.459 721.011 106.026 718.166 101.206C713.798 93.8113 706.606 88.1259 698.403 85.5815C689.59 82.847 673.311 82.9133 667.237 91.2977C666.336 92.5435 665.642 94.1072 666.031 95.5959C666.181 96.1658 666.477 96.6782 666.826 97.1553L666.835 97.1597Z" fill="#9B0A0A"/>
<path d="M687.415 112.356C688.281 109.273 691.612 103.782 697.014 103.578C702.205 103.384 710.02 110.836 703.579 123.364C695.998 138.11 685.776 125.909 685.776 125.909C685.776 125.909 686.28 116.38 687.411 112.36L687.415 112.356Z" fill="#EC6060"/>
<path d="M689.168 117.074L702.138 109.525C702.138 109.525 699.58 106.309 695.653 107.197C691.726 108.084 689.27 112.573 689.168 117.074Z" fill="#FFF5A0"/>
<path d="M692.61 112.674C692.61 112.674 697.752 115.846 696.276 122.406C694.589 129.907 688.51 123.069 689.279 116.363C689.796 111.853 692.61 112.674 692.61 112.674Z" fill="#FFF5A0"/>
<path d="M90.5413 410.944C85.9647 410.944 -0.123589 373.73 0.000106812 319.872C0.145882 257.444 35.2871 207.093 89.6268 186.221C92.5424 185.099 109.068 205.304 101.466 239.589C101.466 239.589 51.7247 268.748 57.2068 318.278C61.3018 355.279 100.481 380.988 100.481 380.988L90.5457 410.948L90.5413 410.944Z" fill="#3ABEF9"/>
<path d="M143.897 545.996H110.391C110.152 538.786 109.048 496.634 116.367 444.976C116.367 444.976 87.5742 499.157 69.2238 532.27C65.5661 538.866 62.8008 543.725 61.3651 546H30.7297L82.1053 351.762L96.6565 345.428L99.5898 344.16L173.636 301.602C173.636 301.602 200.287 355.897 199.399 386.082C198.043 432.271 172.779 473.332 143.897 546V545.996Z" fill="#203170"/>
<path d="M163.45 380.489L142.679 400.461C142.679 400.461 149.468 415.639 155.463 423.229C161.453 430.818 169.042 417.358 173.438 403.717L163.45 380.489Z" fill="#EC6060"/>
<path d="M201.395 352.928C191.809 325.368 166.731 278.233 166.731 278.233C170.455 237.49 199.527 198.638 195.98 196.385C179.228 185.761 161.678 180.31 161.678 180.31L109.153 177.023L89.3675 186.552C89.3675 186.552 70.9818 199.743 71.0834 253.667C71.1232 275.931 75.6732 369.861 75.6732 369.861L201.4 352.928H201.395Z" fill="#3ABEF9"/>
<path d="M161.677 180.31C157.551 201.139 118.712 220.426 109.926 220.452C78.769 220.536 89.3666 186.552 89.3666 186.552C96.4125 181.751 115.907 174.373 115.907 174.373L119.339 152.361L134.871 153.05L138.953 173.927C150.673 177.024 161.681 180.306 161.681 180.306L161.677 180.31Z" fill="#EC6060"/>
<path d="M100.414 143.729C100.807 145.637 101.443 147.435 102.282 149.096C103.024 150.58 103.934 151.959 104.977 153.204C109.951 159.181 117.978 162.26 126.124 160.533C137.883 158.033 145.437 146.459 142.998 134.677C140.56 122.9 129.048 115.377 117.289 117.873C105.529 120.373 97.9752 131.947 100.418 143.724L100.414 143.729Z" fill="#EC6060"/>
<path d="M122.785 140.893C122.785 140.893 118.615 123.439 105.217 125.069C105.217 125.069 113.831 104.727 140.892 115.713C147.885 118.553 150.037 127.601 149.44 133.237C148.345 143.548 143.265 152.626 135.499 155.873L122.785 140.893Z" fill="#203170"/>
<path d="M123.085 138.909C123.716 135.936 126.535 130.52 131.65 129.982C136.563 129.465 144.443 136.011 139.107 148.292C132.83 162.742 122.374 151.848 122.374 151.848C122.374 151.848 122.259 142.797 123.085 138.914V138.909Z" fill="#EC6060"/>
<path d="M125.042 143.261L136.881 135.274C136.881 135.274 134.257 132.393 130.581 133.485C126.906 134.576 124.861 138.989 125.042 143.256V143.261Z" fill="#FFF5A0"/>
<path d="M128.033 138.874C128.033 138.874 133.109 141.546 132.115 147.85C130.98 155.059 124.786 148.977 125.1 142.58C125.312 138.277 128.033 138.869 128.033 138.869V138.874Z" fill="#FFF5A0"/>
<path d="M139.842 118.337C139.842 118.337 139.369 109.48 142.934 106.935C146.499 104.391 158.002 103.428 161.249 109.272C163.983 114.198 164.155 122.14 160.052 124.729C152.255 129.646 143.362 125.255 143.362 125.255L139.846 118.341L139.842 118.337Z" fill="#203170"/>
<path d="M173.437 410.944C178.013 410.944 261.124 371.632 261 317.774C260.855 255.346 225.713 204.995 171.374 184.123C168.458 183 151.932 203.206 159.535 237.49C159.535 237.49 209.276 266.65 203.794 316.179C199.699 353.176 160.52 378.89 160.52 378.89L173.437 410.944Z" fill="#3ABEF9"/>
<path d="M139.045 392.085C145.327 408.143 154.056 423.242 164.83 436.706C165.506 437.555 166.35 438.469 167.432 438.456" stroke="#3572EF" stroke-width="2.34569" stroke-miterlimit="10" stroke-linecap="round"/>
<path d="M116.181 443.81C108.172 438.089 100.888 431.357 94.5486 423.829" stroke="#3572EF" stroke-width="2.34569" stroke-miterlimit="10" stroke-linecap="round"/>
</svg>
