<svg width="380" height="251" viewBox="0 0 380 251" fill="none" xmlns="http://www.w3.org/2000/svg">
<path d="M127.119 36.7949C123.321 31.7059 117.639 28.955 114.073 23.692C113.511 22.8607 112.985 21.9687 112.835 20.9776C112.685 19.9865 112.985 18.8679 113.804 18.2874C115.147 17.3348 116.984 18.2085 118.379 19.0823C115.796 16.3942 110.424 12.6603 109.457 8.9184C109.307 8.34193 109.326 7.68456 109.678 7.20317C110.03 6.72177 110.78 6.51748 111.247 6.88561C111.306 5.72459 111.019 4.56358 111.1 3.40256C111.183 2.24155 111.789 0.979392 112.916 0.692172C114.217 0.358431 115.527 1.45675 116.856 1.26459C117.849 1.12098 118.62 0.28764 119.599 0.0631231C121.539 -0.379843 123.139 1.63676 125.068 2.12221C125.523 2.2375 125.997 2.26379 126.45 2.38111C127.93 2.76542 128.986 4.03161 129.939 5.22701C130.845 6.36578 131.753 7.50657 132.659 8.64533C133.715 9.97221 134.771 11.2971 135.798 12.6462C138.418 16.0787 140.93 19.8024 141.628 24.0622C141.82 25.2394 141.864 26.4813 141.438 27.5958C141.096 28.4918 140.473 29.2483 139.826 29.9562C137.407 32.61 134.508 34.8248 131.314 36.4652C130.364 36.9527 129.354 37.3997 128.284 37.43C127.216 37.4604 126.071 36.9891 125.58 36.0405" fill="#FFF5A0"/>
<path d="M141.24 18.7158C146.179 26.6002 161.365 50.2594 143.408 77.2035C124.989 104.841 83.7167 114.328 57.3067 103.765C55.8888 103.199 63.5041 79.7359 77.6143 69.9704C77.6143 69.9704 103.007 72.8891 112.698 59.5172C123.371 44.7881 120.006 30.5667 120.006 30.5667L141.242 18.7178L141.24 18.7158Z" fill="#203170"/>
<path d="M10.1746 249.999H32.0316C32.5352 249.322 34.0725 246.64 36.2286 242.752C45.1952 226.571 64.8738 189.578 64.8738 189.578C61.8357 212.903 51.6637 240.665 48.8319 248.096C48.8198 248.13 48.7976 248.165 48.7854 248.211C48.3384 249.37 48.0856 249.999 48.0856 249.999H76.9613C100.4 190.84 95.0804 131.679 95.0804 131.679L51.069 150.829L49.6349 151.448L42.5252 154.545L10.1766 249.999H10.1746Z" fill="#203170"/>
<path d="M48.134 160.407C48.134 160.407 54.7158 165.332 56.5322 169.04C56.5322 169.04 53.1604 178.36 42.0336 180.282L36.0809 176.214L48.134 160.407Z" fill="#FFF5A0"/>
<path d="M30.2373 81.3484L42.2096 155.611L66.0852 154.877L95.5212 153.971C97.0463 146.323 91.9087 74.7079 88.905 73.2516C84.7424 71.2229 76.9672 69.8919 76.9672 69.8919L55.7413 69.1577L55.0293 69.5016L30.2373 81.3484Z" fill="#3572EF"/>
<path d="M93.2277 151.08C80.6062 151.322 67.9807 151.444 55.3572 151.444" stroke="#A7E6FF" stroke-width="0.5" stroke-miterlimit="10"/>
<path d="M95.6261 142.976C93.1604 143.789 90.4966 143.615 87.9015 143.518C75.2051 143.04 62.529 144.592 49.9176 146.139" stroke="#A7E6FF" stroke-width="0.5" stroke-miterlimit="10"/>
<path d="M98.6989 128.206C97.2527 129.907 94.8619 130.384 92.6592 130.75C77.8654 133.204 63.0108 135.287 48.1138 136.996" stroke="#A7E6FF" stroke-width="0.5" stroke-miterlimit="10"/>
<path d="M95.1512 119.334C92.6755 121.035 89.5707 121.472 86.5872 121.82C73.5329 123.345 60.3875 124.083 47.2442 124.027" stroke="#A7E6FF" stroke-width="0.5" stroke-miterlimit="10"/>
<path d="M94.6109 105.395C90.7153 108.358 85.7678 109.488 80.9882 110.542C69.5884 113.056 57.8104 115.579 46.3378 113.421C46.1213 113.38 45.8685 113.307 45.7977 113.099C45.7269 112.891 46.0829 112.672 46.1577 112.88" stroke="#A7E6FF" stroke-width="0.5" stroke-miterlimit="10"/>
<path d="M94.1783 91.0972C91.3202 95.895 85.8792 98.4597 80.6284 100.361C74.4673 102.592 68.0352 104.307 61.4817 104.402C54.9283 104.497 48.2089 102.865 42.9661 98.935C42.5495 98.6215 42.2056 97.8549 42.7072 97.7154" stroke="#A7E6FF" stroke-width="0.5" stroke-miterlimit="10"/>
<path d="M92.2747 83.124C89.8151 87.2948 85.1447 89.5946 80.5998 91.2673C74.2789 93.5934 67.5192 95.1711 60.8261 94.4227C54.1311 93.6723 47.4926 90.3106 44.0015 84.55C43.7284 84.099 44.0602 83.1746 44.3858 83.5913" stroke="#A7E6FF" stroke-width="0.5" stroke-miterlimit="10"/>
<path d="M30.2376 81.3486C30.2376 81.3486 26.3217 110.922 42.5072 157.458C44.4004 162.905 65.5555 156.596 65.5555 156.596C65.6931 156.08 66.2918 153.823 66.3484 153.307C68.092 137.413 65.8205 121.347 62.7825 105.661C61.6477 99.8237 60.4078 94.0106 59.0547 88.2318C57.9301 83.3592 56.2917 78.4845 55.5231 73.5431C55.2945 72.1556 55.2015 70.8145 55.0295 69.5059L30.2376 81.3527V81.3486Z" fill="#203170"/>
<path d="M55.741 69.1577C55.741 69.1577 47.8971 69.6391 36.4062 73.3325C23.3984 77.5134 1.37957 90.7073 0.368229 127.024C-0.200146 147.383 20.3118 172.282 34.8609 177.167C46.0928 180.937 52.885 161.428 52.885 161.428C52.885 161.428 22.7734 143.382 26.5781 122.694C29.958 104.326 50.2859 102.285 50.1402 101.846C49.9946 101.407 55.741 69.1597 55.741 69.1597V69.1577Z" fill="#203170"/>
<path d="M56.5322 168.258C56.5322 168.258 55.4419 176.132 42.3633 180.281" stroke="#3572EF" stroke-width="0.5" stroke-miterlimit="10" stroke-linecap="round"/>
<path d="M63.8962 190.295C64.1976 189.863 64.501 189.428 64.8024 188.995C65.3101 188.267 65.8178 187.539 66.3032 186.794C67.4926 184.974 68.5504 183.066 69.4647 181.092" stroke="#3572EF" stroke-width="0.5" stroke-miterlimit="10" stroke-linecap="round"/>
<path d="M31.5034 111.987C34.5131 107.875 40.2171 105.037 43.3522 103.763" stroke="#3572EF" stroke-width="0.5" stroke-miterlimit="10" stroke-linecap="round"/>
<path d="M57.9424 75.276C64.4918 88.1645 69.2148 88.6701 73.5089 88.7187C78.2804 88.7733 78.8427 74.6004 76.8544 69.8228C74.3119 69.4183 70.8147 68.6618 70.8147 68.6618L67.8393 58.1196L60.2503 58.4574L55.7397 69.1614C55.1592 69.3151 56.7268 72.8872 57.9424 75.278V75.276Z" fill="#FFF5A0"/>
<path d="M77.0873 53.8985C76.8951 54.8309 76.5836 55.7088 76.175 56.5219C75.813 57.248 75.368 57.9216 74.8583 58.5304C72.4291 61.4512 68.5051 62.956 64.5244 62.1105C58.778 60.8889 55.0866 55.2335 56.28 49.4769C57.4734 43.7224 63.0984 40.0452 68.8449 41.2649C74.5913 42.4865 78.2827 48.142 77.0893 53.8985H77.0873Z" fill="#FFF5A0"/>
<path d="M76.4725 41.0322L74.9009 44.9764L66.2256 45.1888L65.3478 47.167C65.3478 47.167 58.5172 47.167 56.0556 50.0918C56.0556 50.0918 56.2963 44.3595 57.3097 41.993C58.321 39.6265 71.5938 38.2247 76.4745 41.0322H76.4725Z" fill="#203170"/>
<path d="M66.007 51.5443C65.6975 50.09 64.32 47.4443 61.822 47.1814C59.4211 46.9286 55.5699 50.1284 58.1772 56.1277C61.2456 63.1889 66.3548 57.8652 66.3548 57.8652C66.3548 57.8652 66.4115 53.4416 66.007 51.5443Z" fill="#FFF5A0"/>
<path d="M65.0524 53.6699L59.2676 49.7681C59.2676 49.7681 60.55 48.3604 62.3461 48.8943C64.1402 49.4283 65.1435 51.5845 65.0545 53.6699H65.0524Z" fill="white"/>
<path d="M63.5904 51.5274C63.5904 51.5274 61.1086 52.834 61.594 55.9146C62.1503 59.4381 65.1762 56.4667 65.0225 53.3397C64.9193 51.2361 63.5904 51.5274 63.5904 51.5274Z" fill="white"/>
<path d="M85.8667 156.418C85.8343 156.832 85.9051 157.389 86.3157 157.453C86.4553 157.476 86.5949 157.425 86.7284 157.376C90.5168 156.009 94.637 155.572 98.6278 156.108C99.2568 156.193 99.9445 156.29 100.485 155.957C100.958 155.665 101.195 155.111 101.377 154.585C101.981 152.834 102.289 150.993 102.572 149.162C104.447 136.998 105.363 124.631 104.309 112.37C103.258 100.108 100.195 87.9279 94.4489 77.0459C93.3324 74.9302 92.0945 72.8387 90.3854 71.164C88.3242 69.1433 77.6122 69.9686 77.6122 69.9686C79.6632 76.7931 81.6393 83.1362 83.0592 90.1387C85.891 104.109 86.9508 118.393 86.8962 132.633C86.8659 140.57 86.4897 148.505 85.8667 156.418Z" fill="#203170"/>
<path d="M103.42 104.764C102.071 96.7178 99.5527 88.8678 95.9685 81.5376" stroke="#3572EF" stroke-width="0.5" stroke-miterlimit="10" stroke-linecap="round"/>
<path d="M68.9048 186.054C75.788 179.028 80.6323 170.023 82.7015 160.407" stroke="#3572EF" stroke-width="0.5" stroke-miterlimit="10" stroke-linecap="round"/>
<path d="M103.169 155.865C107.997 161.736 114.763 166.059 122.023 167.997C133.249 170.99 145.726 141.198 145.726 141.198C145.726 141.198 135.338 129.857 139.145 113.435C142.527 98.8495 143.123 94.262 142.986 93.9182C142.836 93.5622 148.18 70.352 148.18 70.352C148.18 70.352 138.617 69.6865 128.698 74.193C118.572 78.7906 102.965 101.76 97.6555 123.492C96.7372 127.207 96.1304 130.877 95.9019 134.42C95.374 142.517 98.2866 149.971 103.171 155.865H103.169Z" fill="#3ABEF9"/>
<path d="M171.813 141.198C171.813 141.198 184.278 170.99 195.516 167.997C204.863 165.509 213.405 159.018 218.039 150.418C220.63 145.636 222.007 140.189 221.629 134.42C221.148 127.001 219.004 118.997 215.919 111.301C208.925 93.813 197.068 77.931 188.834 74.193C178.926 69.6865 169.351 70.352 169.351 70.352C169.351 70.352 174.707 93.5622 174.557 93.9182C174.408 94.262 175.017 98.8495 178.388 113.435C182.195 129.857 171.817 141.198 171.817 141.198H171.813Z" fill="#3ABEF9"/>
<path d="M122.015 151.445C122.015 151.445 113.159 221.071 115.255 250H215.003C215.003 250 202.78 164.875 197.899 157.458C193.019 150.041 122.015 151.445 122.015 151.445Z" fill="#203170"/>
<path d="M201.421 230.28C201.311 230.205 201.194 230.128 201.063 230.132C200.787 230.141 200.654 230.466 200.591 230.735C199.742 234.394 199.23 238.13 199.066 241.882C199.129 240.434 209.564 239.601 210.29 237.734C210.897 236.172 202.859 231.269 201.421 230.282V230.28Z" stroke="#3ABEF9" stroke-width="0.5" stroke-linecap="round" stroke-linejoin="round"/>
<path d="M191.704 223.959C189.167 221.629 186.734 219.186 184.414 216.641C184.442 216.673 189.869 215.065 190.369 214.991C191.649 214.794 195.298 213.999 196.431 214.813C198.751 216.481 193.031 222.549 191.704 223.959Z" stroke="#3ABEF9" stroke-width="0.5" stroke-linecap="round" stroke-linejoin="round"/>
<path d="M166.991 209.386C166.859 209.521 166.702 209.667 166.512 209.653C166.303 209.639 166.164 209.439 166.056 209.261C164.145 206.099 162.234 202.938 160.32 199.778C161.139 199.169 162.13 198.846 163.111 198.561C165.601 197.841 168.15 197.325 170.725 197.019C172.764 196.777 175.897 195.632 175.337 198.158C174.489 201.981 169.631 206.667 166.989 209.384L166.991 209.386Z" stroke="#3ABEF9" stroke-width="0.5" stroke-linecap="round" stroke-linejoin="round"/>
<path d="M175.025 231.885C175.51 231.879 176.169 231.684 176.107 231.203C176.089 231.062 176.002 230.94 175.919 230.825C174.675 229.112 168.402 218.547 166.588 219.902C165.672 220.586 165.761 223.745 165.637 224.737C165.334 227.174 164.772 229.458 164.252 231.826C167.658 232.384 171.562 231.929 175.027 231.885H175.025Z" stroke="#3ABEF9" stroke-width="0.5" stroke-linecap="round" stroke-linejoin="round"/>
<path d="M128.004 230.604C124.776 231.127 121.553 231.704 118.343 232.331C117.785 232.44 117.14 232.622 116.94 233.154C116.681 233.84 117.352 234.491 117.935 234.938C119.353 236.024 124.183 242.005 125.423 241.362C127.176 240.452 126.822 230.796 128.004 230.604Z" stroke="#3ABEF9" stroke-width="0.5" stroke-linecap="round" stroke-linejoin="round"/>
<path d="M149.926 223.798C147.011 223.998 144.094 224.198 141.18 224.399C140.008 224.479 138.819 224.558 137.674 224.308C137.403 224.249 137.124 224.164 136.928 223.968C136.562 223.604 136.614 223.007 136.709 222.499C137.132 220.286 139.013 213.254 142.128 213.986C144.893 214.635 148.459 221.532 149.928 223.798H149.926Z" stroke="#3ABEF9" stroke-width="0.5" stroke-linecap="round" stroke-linejoin="round"/>
<path d="M137.405 195.104C139.594 197.254 141.869 199.315 144.225 201.281C144.893 201.837 145.645 202.416 146.513 202.406C146.632 202.406 146.762 202.387 146.847 202.303C146.938 202.212 146.948 202.07 146.954 201.941C147.055 199.695 148.793 191.655 146.481 190.755C144.798 190.1 137.302 195.003 137.405 195.104Z" stroke="#3ABEF9" stroke-width="0.5" stroke-linecap="round" stroke-linejoin="round"/>
<path d="M140.829 236.006C141.282 239.184 141.782 242.354 142.326 245.517C143.594 244.489 152.302 238.603 151.861 237.376C151.181 235.48 141.131 238.122 140.829 236.006Z" stroke="#3ABEF9" stroke-width="0.5" stroke-linecap="round" stroke-linejoin="round"/>
<path d="M192.397 200.873C195.275 198.923 197.943 196.663 200.34 194.145C200 194.501 194.219 187.395 191.732 189.59C189.278 191.754 191.889 198.281 192.397 200.873Z" stroke="#3ABEF9" stroke-width="0.5" stroke-linecap="round" stroke-linejoin="round"/>
<path d="M128.59 207.7C125.712 209.043 122.836 210.386 119.958 211.729C119.466 211.957 118.776 212.139 118.473 211.692C118.331 211.484 118.341 211.211 118.356 210.958C118.536 207.977 118.439 201.055 121.155 199.004C123.493 197.238 127.365 205.756 128.588 207.7H128.59Z" stroke="#3ABEF9" stroke-width="0.5" stroke-linecap="round" stroke-linejoin="round"/>
<path d="M185.126 242.089C184.77 241.87 184.384 241.66 183.965 241.656C183.601 241.652 183.257 241.806 182.931 241.967C180.976 242.934 179.232 244.326 177.85 246.013C180.893 246.322 183.963 246.332 187.009 246.041C190.47 245.709 186.319 242.823 185.128 242.089H185.126Z" stroke="#3ABEF9" stroke-width="0.5" stroke-linecap="round" stroke-linejoin="round"/>
<path d="M118.663 188.364C124.694 192.23 131.893 193.759 149.644 194.815C167.854 195.893 195.462 192.521 201.825 189.952C206.813 187.946 208.809 186.008 208.809 186.008L191.285 86.6257L173.097 70.8691L172.385 70.5252L157.753 67.3496C157.753 67.3496 141.94 70.9621 137.777 72.9909C136.458 73.632 125.576 80.5941 121.389 103.77C120.277 109.917 115.691 175.051 114.957 182.367C114.728 184.695 116.023 186.69 118.661 188.364H118.663Z" fill="#3ABEF9"/>
<path d="M149.579 73.5092C153.499 74.3203 158.243 75.3073 162.444 76.1973C167.506 77.2714 170.019 74.2373 168.03 69.4598C166.2 69.0755 161.885 67.8518 161.885 67.8518L158.91 57.3096L151.321 57.6474L148.958 68.2523C146.533 69.3951 146.954 72.9671 149.579 73.5112V73.5092Z" fill="#3572EF"/>
<path d="M168.157 53.0904C167.965 54.0228 167.654 54.9007 167.245 55.7138C166.883 56.4399 166.438 57.1135 165.928 57.7223C163.499 60.6431 159.575 62.1479 155.594 61.3024C149.848 60.0807 146.157 54.4254 147.35 48.6688C148.543 42.9143 154.169 39.2371 159.915 40.4567C165.661 41.6784 169.353 47.3338 168.159 53.0904H168.157Z" fill="#3572EF"/>
<path d="M144.935 44.2142C145.86 42.7781 147.553 41.6555 148.946 40.7211C150.484 39.6895 152.084 38.749 153.734 37.9116C157.037 36.2368 160.546 34.9645 164.159 34.1413C165.154 33.9148 166.169 33.7206 167.189 33.7813C168.896 33.8824 170.549 34.736 171.625 36.0709C172.015 36.5544 172.341 37.1227 172.385 37.7417C172.422 38.2615 172.26 38.7753 172.057 39.2566C171.17 41.3703 169.509 43.0836 167.628 44.3922C166.703 45.0354 165.718 45.6099 164.707 46.1257C164.048 46.4614 163.378 46.7709 162.705 47.0581C161.21 47.6973 160.176 47.9885 159.707 49.8191C159.369 51.1399 159.681 52.5416 159.357 53.8664C159.266 54.2447 159.108 54.6249 158.809 54.8697C158.51 55.1144 158.038 55.1812 157.737 54.9344C157.583 54.809 157.494 54.6249 157.409 54.4449C157.158 53.9211 156.869 52.7074 156.234 52.7074C155.872 52.7074 155.203 53.5873 154.94 53.8462C153.989 54.7807 153.202 55.7678 152.565 56.949C151.829 58.3163 151.003 59.714 150.111 60.9842C149.636 61.6598 148.993 62.1978 148.34 62.7055C147.648 63.2436 146.885 63.7755 146.009 63.8322C145.587 63.8585 145.101 63.731 144.903 63.3528C144.727 63.019 144.834 62.6125 144.972 62.2626C145.571 60.7496 146.738 59.4773 148.182 58.735C148.182 58.733 148.178 58.7289 148.176 58.7269C146.62 56.5525 145.415 54.1274 144.63 51.5727C143.886 49.1455 143.566 46.3441 144.935 44.2163V44.2142Z" fill="#FFF5A0"/>
<path d="M157.079 50.7357C156.77 49.2814 155.392 46.6358 152.894 46.3728C150.494 46.12 146.642 49.3199 149.25 55.3191C152.318 62.3803 157.427 57.0566 157.427 57.0566C157.427 57.0566 157.484 52.633 157.079 50.7357Z" fill="#3572EF"/>
<path d="M156.123 52.8618L150.338 48.96C150.338 48.96 151.62 47.5523 153.416 48.0862C155.211 48.6202 156.214 50.7764 156.125 52.8618H156.123Z" fill="#635EA6"/>
<path d="M154.663 50.7173C154.663 50.7173 152.181 52.0219 152.666 55.1045C153.222 58.628 156.248 55.6567 156.095 52.5296C155.992 50.426 154.663 50.7173 154.663 50.7173Z" fill="#635EA6"/>
<path d="M165.832 68.721C165.832 68.721 167.272 65.6081 165.126 64.5826C162.978 63.5571 150.633 61.4596 146.533 64.5826C146.533 64.5826 145.059 65.6506 146.064 69.3379L147.126 74.0993C147.126 74.0993 155.672 78.5876 156.129 78.6382C156.586 78.6867 166.459 78.98 167.037 78.6382C167.614 78.2963 169.762 73.4176 170.055 73.0758C170.348 72.734 168.714 69.6575 168.714 69.6575L165.834 68.723L165.832 68.721Z" fill="#3ABEF9"/>
<path d="M187.438 83.2905C190.884 89.662 197.828 117.395 198.771 124.579C198.908 125.629 199.014 126.723 198.67 127.723C198.415 128.463 197.929 129.1 197.452 129.721C194.08 134.116 181.287 138.512 177.915 142.909C177.209 152.312 180.112 161.861 185.939 169.277" stroke="#203170" stroke-width="0.5" stroke-linecap="round" stroke-linejoin="round"/>
<path d="M129.662 81.3857C122.872 87.7916 117.017 101.064 118.26 122.847C118.289 123.358 118.046 123.87 118.171 124.368C118.317 124.948 118.752 125.401 119.167 125.834C123.519 130.385 135.051 139.981 137.854 145.618C141.604 153.156 134.855 162.509 129.383 168.911" stroke="#203170" stroke-width="0.5" stroke-linecap="round" stroke-linejoin="round"/>
<path d="M165.075 249.999C158.37 234.345 159.713 240.33 154.353 217.201" stroke="#3572EF" stroke-width="0.5" stroke-linecap="round" stroke-linejoin="round"/>
<path d="M147.398 164.794C147.552 165.09 147.706 165.409 147.671 165.741C147.631 166.123 147.352 166.431 147.087 166.708C143.855 170.071 140.26 173.421 135.742 174.58C134.708 174.845 133.596 174.984 132.586 174.639C130.879 174.052 129.924 172.282 129.134 170.66C128.893 170.166 128.644 169.647 128.66 169.096C128.679 168.494 129.006 167.952 129.324 167.44C130.851 164.99 132.378 162.539 133.905 160.089C134.803 158.647 136.628 154.106 138.484 153.987C140.27 153.874 142.489 157.393 143.426 158.599C143.934 159.252 147.014 164.796 147.398 164.796V164.794Z" fill="#3572EF"/>
<path d="M168.581 164.794C168.427 165.09 168.273 165.409 168.308 165.741C168.348 166.123 168.627 166.431 168.892 166.708C172.124 170.071 175.719 173.421 180.237 174.58C181.271 174.845 182.383 174.984 183.393 174.639C185.1 174.052 186.055 172.282 186.845 170.66C187.086 170.166 187.335 169.647 187.319 169.096C187.301 168.494 186.973 167.952 186.655 167.44C185.128 164.99 183.601 162.539 182.074 160.089C181.176 158.647 179.351 154.106 177.495 153.987C175.709 153.874 173.49 157.393 172.553 158.599C172.046 159.252 168.965 164.796 168.581 164.796V164.794Z" fill="#3572EF"/>
<path d="M148.775 164.076C144.79 170.779 137.767 175.593 130.077 176.892" stroke="#203170" stroke-width="0.5" stroke-linecap="round" stroke-linejoin="round"/>
<path d="M166.878 163.552C167.189 164.507 167.846 165.306 168.518 166.054C173.229 171.309 179.295 175.336 185.966 177.638" stroke="#203170" stroke-width="0.5" stroke-linecap="round" stroke-linejoin="round"/>
<path d="M103.169 155.864C105.578 154.626 108.076 150.773 109.36 148.823C110.76 146.667 111.917 144.214 111.838 141.645C111.747 138.779 110.129 136.198 108.454 133.87C105.529 129.776 102.113 125.854 97.6632 123.503L97.6511 123.491C96.7328 127.207 96.126 130.876 95.8974 134.42C95.3695 142.516 98.2822 149.97 103.167 155.864H103.169Z" fill="#A7E6FF"/>
<path d="M205.057 130.028C205.207 132.035 206.204 133.859 207.223 135.601C209.942 140.233 212.992 145.773 216.902 149.511C217.302 149.889 217.681 150.198 218.037 150.417C220.628 145.635 222.005 140.188 221.627 134.419C221.145 127 219.001 118.997 215.917 111.3C214.701 111.519 213.508 112.287 212.579 113.147C209.335 116.175 207.557 120.429 206.089 124.626C205.482 126.369 204.907 128.18 205.057 130.026V130.028Z" fill="#A7E6FF"/>
<path d="M261.672 173.089C261.672 173.089 266.354 183.751 282.41 192.084C298.464 200.415 282.068 161.184 282.068 161.184C282.068 161.184 274.748 159.719 274.358 159.62C273.968 159.523 261.67 173.089 261.67 173.089H261.672Z" fill="#FFF5A0"/>
<path d="M306.026 58.8037C313.969 55.5189 322.949 54.7988 331.313 56.775C334.462 57.5193 337.626 58.6965 339.94 60.9579C341.766 62.7439 342.952 65.1064 343.68 67.5558C344.778 71.2472 344.877 75.3411 343.328 78.8666C341.291 83.5026 336.77 86.5326 332.225 88.7656C327.033 91.3142 321.501 93.169 315.823 94.2653C310.585 95.2746 304.654 95.4789 300.465 92.1759C298.244 90.4262 296.802 87.8959 295.431 85.4242C294.577 83.8869 293.728 82.3355 293.184 80.6628C291.606 75.8185 291.745 70.6829 294.953 66.6659C297.811 63.0857 301.833 60.5372 306.03 58.8017L306.026 58.8037Z" fill="#3572EF"/>
<path d="M281.288 162.746C286.767 156.925 284.704 150.658 283.923 125.148C283.588 114.151 292.186 101.236 286.583 73.3497C286.282 71.853 273.155 82.1362 268.308 87.9818C248.984 111.303 248.755 119.511 246.569 131.184C242.469 153.076 249.374 165.673 254.255 169.577C258.741 173.165 264.947 173.594 268.074 172.787C277.821 170.272 281.288 162.744 281.288 162.744V162.746Z" fill="#3572EF"/>
<path d="M374.978 250H342.597C342.094 249.323 340.556 246.641 338.4 242.753C329.434 226.572 318.096 211.966 318.096 211.966C321.135 235.291 322.965 240.666 325.797 248.097C325.809 248.131 325.831 248.166 325.843 248.212C326.29 249.371 326.543 250 326.543 250H297.667C274.229 190.841 279.548 131.68 279.548 131.68L323.56 150.83L324.994 151.449L341.582 158.672L374.978 250Z" fill="#3ABEF9"/>
<path d="M279.113 153.971C277.578 146.33 282.719 74.7129 285.719 73.2545C289.892 71.2258 297.667 69.8949 297.667 69.8949L318.887 69.1606L365.512 108.821C365.512 108.821 336.628 153.35 336.624 153.377C336.622 153.393 335.687 159.59 335.661 159.623C329.603 167.165 313.804 173.314 303.065 171.407C279.722 167.256 279.414 155.385 279.113 153.973V153.971Z" fill="#3572EF"/>
<path d="M324.39 164.014C324.39 164.014 320.705 165.869 318.887 169.577C318.887 169.577 324.752 182.88 332.56 185.026L340.477 177.677L324.388 164.014H324.39Z" fill="#FFF5A0"/>
<path d="M318.889 69.1582C318.889 69.1582 326.735 69.6396 338.224 73.333C351.231 77.5139 378.115 96.4178 379.128 132.735C379.697 153.093 362.577 180.6 341.957 180.282C326.862 180.049 321.664 163.755 321.787 155.142C321.836 151.736 325.244 150.431 328.401 149.153C336.308 145.951 350.849 137.897 348.052 122.694C344.672 104.326 324.344 102.286 324.49 101.847C324.635 101.408 318.889 69.1602 318.889 69.1602V69.1582Z" fill="#3572EF"/>
<path d="M318.889 169.576C318.889 169.576 322.987 181.848 334.385 185.695" stroke="#203170" stroke-width="0.5" stroke-linecap="round" stroke-linejoin="round"/>
<path d="M318.096 211.223C317.706 210.867 317.315 210.511 316.923 210.157C316.266 209.561 315.608 208.962 314.971 208.345C313.408 206.834 304.32 199.196 299.928 190.841" stroke="#203170" stroke-width="0.5" stroke-linecap="round" stroke-linejoin="round"/>
<path d="M331.276 103.765C334.411 105.039 337.372 106.746 340.048 108.819C346.661 113.945 350.453 121.412 349.349 129.705C348.653 134.934 345.641 139.697 341.606 143.096C337.571 146.494 332.575 148.611 327.441 149.823C324.375 150.547 322.37 152.044 321.786 155.141C321.201 158.237 322.2 161.389 323.187 164.382C323.63 165.729 324.075 167.074 324.518 168.421" stroke="#203170" stroke-width="0.5" stroke-linecap="round" stroke-linejoin="round"/>
<path d="M297.441 73.8849C297.441 73.8849 296.563 77.8372 298.515 78.3732C303.504 79.7446 322.864 69.6352 322.864 69.6352C321.67 69.1619 316.575 68.988 316.575 68.988L313.6 58.4458L306.011 58.7836L303.648 69.3885C301.223 70.5313 298.846 71.6013 297.441 73.8849Z" fill="#FFF5A0"/>
<path d="M322.845 54.2271C322.653 55.1596 322.342 56.0374 321.933 56.8505C321.571 57.5766 321.126 58.2502 320.616 58.859C318.187 61.7798 314.263 63.2846 310.282 62.4392C304.536 61.2175 300.845 55.5621 302.038 49.8055C303.231 44.051 308.856 40.3738 314.603 41.5935C320.349 42.8152 324.041 48.4706 322.847 54.2271H322.845Z" fill="#FFF5A0"/>
<path d="M306.035 60.7192C304.987 61.4069 303.739 61.7912 302.485 61.8114C301.793 61.8236 301.077 61.7164 300.495 61.3462C299.91 60.9761 299.488 60.2985 299.568 59.6128C299.649 58.9271 300.335 58.3243 301.013 58.468C300.23 58.1848 299.396 57.8632 298.929 57.1775C298.462 56.4898 298.62 55.3308 299.417 55.0921C298.442 54.635 297.457 53.9938 297.079 52.9865C296.698 51.9792 297.271 50.5876 298.345 50.5087C297.386 49.5378 296.393 48.5144 295.994 47.2097C295.596 45.9051 296.008 44.2405 297.254 43.6842C298.339 43.2008 299.613 43.6964 300.582 44.382C299.698 42.4524 300.195 39.9827 301.755 38.5426C302.259 38.0774 302.886 37.7072 303.571 37.6688C304.255 37.6304 304.989 37.9884 305.24 38.6255C305.92 37.5656 306.644 36.5098 307.629 35.727C308.614 34.9442 309.904 34.4588 311.138 34.7015C312.372 34.9442 313.462 36.0547 313.424 37.3128C314.36 36.8375 315.519 36.8314 316.46 37.2986C317.4 37.7659 318.098 38.6923 318.286 39.7238C319.332 39.384 320.388 39.0442 321.48 38.9188C322.228 38.8338 323.035 38.8642 323.66 39.2829C324.271 39.6915 324.613 40.4156 324.737 41.1417C325.028 42.8691 324.13 44.734 322.599 45.5815C321.065 46.429 319.008 46.2004 317.702 45.0354C317.866 45.8991 316.986 46.5969 316.156 46.8881C315.228 47.2138 314.225 47.3149 313.25 47.1834C313.082 49.1009 311.381 50.7656 309.459 50.893C309.653 52.4687 309.219 54.1131 308.274 55.3874C308.163 55.5391 308.041 55.6888 307.979 55.8668C307.904 56.0812 307.92 56.3158 307.924 56.5444C307.954 58.6197 306.615 60.6464 304.696 61.4332" fill="#203170"/>
<path d="M311.767 51.8724C311.458 50.4181 310.08 47.7725 307.582 47.5095C305.181 47.2567 301.33 50.4566 303.937 56.4558C307.006 63.517 312.115 58.1933 312.115 58.1933C312.115 58.1933 312.172 53.7697 311.767 51.8724Z" fill="#FFF5A0"/>
<path d="M310.81 53.9985L305.026 50.0968C305.026 50.0968 306.308 48.689 308.104 49.223C309.898 49.7569 310.901 51.9131 310.812 53.9985H310.81Z" fill="white"/>
<path d="M309.348 51.8555C309.348 51.8555 306.866 53.1621 307.352 56.2427C307.908 59.7662 310.934 56.7928 310.78 53.6678C310.677 51.5642 309.348 51.8555 309.348 51.8555Z" fill="white"/>
<path d="M305.583 89.2979C302.583 91.1688 301.135 95.2061 302.266 98.5577C303.158 101.203 305.429 103.37 305.648 106.151C305.805 108.149 304.745 110.196 303.022 111.222C301.762 111.97 300.069 112.34 299.511 113.693C299.296 114.213 299.298 114.796 299.339 115.358C299.495 117.504 300.158 119.612 301.26 121.458" stroke="#3ABEF9" stroke-width="0.5" stroke-linecap="round" stroke-linejoin="round"/>
<path d="M295.633 87.7383C296.397 89.1177 296.879 90.655 297.039 92.2246C297.174 93.5474 297.045 94.9896 296.203 96.0211C295.188 97.2651 293.43 97.5867 292.126 98.5252C289.666 100.295 289.494 104.448 291.798 106.416C292.405 106.933 293.133 107.304 293.709 107.858C295.224 109.31 295.297 112.002 293.863 113.533C293.424 114.003 292.837 114.377 292.194 114.401C291.551 114.425 290.871 114.021 290.728 113.394" stroke="#3ABEF9" stroke-width="0.5" stroke-linecap="round" stroke-linejoin="round"/>
<path d="M282.658 86.0156C277.872 108.358 276.759 133.546 279.559 156.223" stroke="#203170" stroke-width="0.5" stroke-linecap="round" stroke-linejoin="round"/>
<path d="M270.424 75.1473C273.583 88.4788 272.441 102.684 267.922 115.617C266.435 119.871 264.497 124.137 261.138 127.142C260.124 128.048 258.921 128.853 257.566 128.944C255.683 129.072 253.933 127.753 253.023 126.101C252.113 124.448 251.884 122.514 251.749 120.631C251.302 114.341 251.714 108.024 251.7 101.717C251.658 83.2259 247.942 64.9692 245.79 46.6033C245.64 45.3311 245.509 43.988 246.032 42.8209C247.596 39.3359 250.499 42.4569 252.139 43.9233C254.38 45.9278 256.457 48.1183 258.353 50.4525C262.093 55.0602 265.129 60.2321 267.386 65.7176C268.644 68.7739 269.661 71.9293 270.422 75.1433L270.424 75.1473Z" fill="#9B0A0A"/>
<path d="M220.992 184.88C218.785 184.88 180.29 163.997 180.348 138.038C180.417 107.947 194.359 86.6241 220.549 76.5653C221.955 76.0252 229.918 85.7624 226.255 102.288C226.255 102.288 196.817 118.002 199.459 141.875C201.433 159.709 225.778 170.442 225.778 170.442L220.988 184.882L220.992 184.88Z" fill="#EC6060"/>
<path d="M246.698 249.999H230.559C230.446 246.611 229.9 226.253 233.437 201.281C233.437 201.281 219.56 227.396 210.715 243.357C208.939 246.561 207.598 248.917 206.912 249.999H192.155L216.926 156.353L223.939 153.299L225.353 152.688L261.043 132.174C261.043 132.174 273.887 158.344 273.46 172.893C272.807 195.16 260.624 214.956 246.698 249.997V249.999Z" fill="#3572EF"/>
<path d="M256.132 170.199L246.12 179.825C246.12 179.825 249.392 187.141 252.281 190.798C255.169 194.455 258.826 187.968 260.944 181.392L256.13 170.197L256.132 170.199Z" fill="#EC6060"/>
<path d="M211.609 108.578V109.075C211.609 110.693 211.665 113.102 211.756 116.031C211.769 116.405 211.779 116.79 211.791 117.184C211.916 120.997 212.084 125.566 212.276 130.339C212.288 130.724 212.311 131.108 212.321 131.492C212.479 135.315 212.638 139.241 212.806 142.995C212.829 143.38 212.841 143.754 212.863 144.126C213.011 147.395 213.146 150.506 213.269 153.289C213.292 153.673 213.304 154.047 213.326 154.419C213.619 160.73 213.824 165.075 213.824 165.075L214.649 164.962L270.875 157.395L274.415 156.919C273.543 154.419 272.425 151.592 271.146 148.651C271.011 148.301 270.853 147.949 270.705 147.599C269.676 145.234 268.567 142.803 267.447 140.429C267.289 140.079 267.129 139.739 266.971 139.399C265.353 136.005 263.759 132.736 262.346 129.931C262.164 129.569 261.996 129.219 261.826 128.879C259.427 124.14 257.708 120.916 257.708 120.916C257.708 120.871 257.72 120.815 257.72 120.768C257.754 120.394 257.799 120.022 257.845 119.648C258.06 117.781 258.387 115.938 258.796 114.116C258.875 113.741 258.966 113.369 259.057 113.007C259.633 110.598 260.335 108.256 261.126 105.995C261.249 105.633 261.375 105.283 261.51 104.931C266.148 92.1271 273.035 82.2403 271.804 81.4615C263.739 76.3381 255.278 73.7127 255.278 73.7127L229.965 72.1289L220.418 76.7204C220.418 76.7204 219.445 77.4101 218.144 79.2872C217.907 79.6492 217.647 80.0457 217.375 80.4967C215.974 82.8491 214.366 86.4697 213.213 91.852C213.122 92.2363 213.043 92.6206 212.976 93.0292C212.602 94.8961 212.297 96.9532 212.072 99.2267C212.028 99.6009 211.993 99.9852 211.959 100.38C211.767 102.54 211.653 104.892 211.619 107.437C211.607 107.811 211.607 108.183 211.607 108.567L211.609 108.578Z" fill="#FFF5A0"/>
<path d="M213.272 153.29C213.294 153.674 213.306 154.048 213.328 154.42C215.816 154.546 218.339 154.625 220.895 154.625C221.201 154.637 221.518 154.637 221.824 154.637C235.25 154.637 249.591 153.132 265.19 150.112C266.229 149.908 267.271 149.706 268.288 149.457C269.261 149.23 270.222 148.959 271.151 148.654C271.015 148.304 270.857 147.952 270.71 147.602C269.805 147.895 268.855 148.156 267.894 148.371C266.943 148.607 265.96 148.801 264.975 148.994C250.113 151.878 236.381 153.383 223.51 153.496H223.498C220.025 153.531 216.621 153.462 213.274 153.292L213.272 153.29Z" fill="#A7E6FF"/>
<path d="M212.809 142.996C212.831 143.38 212.843 143.755 212.865 144.127C218.725 144.612 224.922 144.942 231.29 144.942C233.881 144.942 236.504 144.885 239.14 144.762C247.714 144.378 256.456 143.279 265.02 141.087C265.835 140.882 266.638 140.668 267.451 140.431C267.293 140.081 267.134 139.742 266.976 139.402C266.185 139.628 265.382 139.833 264.579 140.035C256.887 141.991 249.039 143.055 241.302 143.53H241.29C231.405 144.107 221.733 143.734 212.809 142.998V142.996Z" fill="#A7E6FF"/>
<path d="M212.276 130.34C212.289 130.725 212.311 131.109 212.321 131.493C218.824 132.183 225.363 132.533 231.9 132.533C240.837 132.533 249.771 131.877 258.65 130.577C259.872 130.397 261.116 130.203 262.35 129.932C262.168 129.57 262 129.22 261.83 128.88C260.722 129.117 259.591 129.299 258.482 129.456C243.167 131.695 227.649 132.001 212.279 130.338L212.276 130.34Z" fill="#A7E6FF"/>
<path d="M211.756 116.032C211.769 116.406 211.779 116.791 211.791 117.185C213.725 117.513 215.67 117.796 217.604 118.023C222.717 118.646 227.897 118.961 232.92 119.266L257.724 120.771C257.758 120.397 257.803 120.025 257.849 119.651L232.988 118.136C227.988 117.83 222.82 117.513 217.742 116.904C215.751 116.667 213.749 116.372 211.758 116.032H211.756Z" fill="#A7E6FF"/>
<path d="M211.609 108.578C227.479 108.77 243.314 110.637 258.798 114.12C258.877 113.746 258.968 113.374 259.059 113.012C243.494 109.506 227.592 107.605 211.621 107.447C211.609 107.821 211.609 108.194 211.609 108.578Z" fill="#A7E6FF"/>
<path d="M211.959 100.388C228.484 98.4642 245.463 100.366 261.128 105.999C261.252 105.637 261.377 105.287 261.513 104.935C245.756 99.2673 228.701 97.3336 212.072 99.2349C212.028 99.6091 211.993 99.9934 211.959 100.388Z" fill="#A7E6FF"/>
<path d="M212.978 93.0359C229.425 90.3316 246.618 91.5432 262.429 96.6323C262.485 96.6545 262.554 96.6666 262.611 96.6666C262.848 96.6666 263.064 96.5089 263.143 96.2702C263.244 95.9769 263.074 95.6594 262.781 95.5582C246.933 90.457 229.718 89.2131 213.217 91.8587C213.126 92.2431 213.047 92.6274 212.981 93.0359H212.978Z" fill="#A7E6FF"/>
<path d="M217.378 80.5038C224.482 79.7575 232.036 80.2672 240.125 81.0014C248.721 81.7822 259.409 82.7429 268.436 87.0978C268.515 87.1423 268.594 87.1544 268.685 87.1544C268.89 87.1544 269.092 87.0411 269.195 86.8368C269.33 86.5536 269.207 86.2138 268.934 86.0783C259.727 81.6325 248.914 80.6596 240.226 79.8687C232.411 79.1668 225.08 78.6591 218.147 79.2922C217.91 79.6543 217.649 80.0508 217.378 80.5018V80.5038Z" fill="#A7E6FF"/>
<path d="M258.948 186.484C260.507 184.88 303.21 165.932 303.149 139.973C303.08 109.881 286.14 85.6134 259.951 75.5526C258.545 75.0125 250.582 84.7497 254.245 101.275C254.245 101.275 284.626 113.571 281.984 137.444C280.01 155.278 256.134 170.2 256.134 170.2L258.95 186.484H258.948Z" fill="#EC6060"/>
<path d="M244.37 175.79C247.398 183.53 251.605 190.808 256.798 197.297C257.125 197.705 257.53 198.146 258.052 198.14" stroke="#203170" stroke-width="0.5" stroke-miterlimit="10" stroke-linecap="round"/>
<path d="M233.349 200.719C229.49 197.962 225.976 194.718 222.922 191.089" stroke="#203170" stroke-width="0.5" stroke-miterlimit="10" stroke-linecap="round"/>
<path d="M229.046 63.2322C227.794 59.4012 226.257 55.5177 226.499 51.4946C226.875 45.2324 231.588 40.0624 237.729 38.7801C239.143 38.4848 242.021 39.9087 243.334 40.5135C244.96 41.2619 245.009 41.0313 245.731 42.6697C247.925 47.6556 248.387 53.2402 248.205 58.6852C248.073 62.6598 247.594 66.7031 245.919 70.3095C245.195 71.871 244.232 73.3516 242.913 74.458C241.9 75.3076 240.705 75.9123 239.481 76.4119C237.766 77.1118 235.911 77.6276 234.076 77.3808C231.121 76.9823 230.203 75.4188 230.49 72.7792C230.844 69.5166 230.055 66.3127 229.046 63.2302V63.2322Z" fill="#9B0A0A"/>
<path d="M250.395 77.4471C249.291 81.2376 237.737 84.935 228.417 83.5212C219.296 82.1397 228.858 72.5866 228.858 72.5866C233.427 70.6812 236.643 69.3827 236.643 69.3827L238.022 58.8506L245.508 59.1823L247.838 69.6416C250.231 70.7702 251.368 74.1097 250.395 77.4471Z" fill="#EC6060"/>
<path d="M228.517 53.0252C228.647 53.9576 228.896 54.8436 229.245 55.6708C229.555 56.4111 229.949 57.1029 230.411 57.738C232.611 60.7781 236.371 62.5237 240.338 61.9573C246.066 61.1401 250.059 55.8124 249.256 50.062C248.455 44.3115 243.161 40.3106 237.435 41.1298C231.709 41.947 227.716 47.2747 228.517 53.0252Z" fill="#EC6060"/>
<path d="M230.135 44.4879C230.233 44.6193 230.338 44.7447 230.445 44.8681C232.757 47.5421 235.623 49.6963 237.884 52.4127C238.964 53.7092 239.867 55.1413 240.607 56.6543C241.319 58.1086 241.59 59.5871 242.166 61.0637C243.503 64.482 243.938 68.2401 243.37 71.8688C242.846 75.2083 241.515 78.3576 240.425 81.5574C238.712 86.5878 237.573 92.041 238.833 97.2049C239.094 98.2769 239.468 99.3449 240.142 100.219C240.221 100.32 240.314 100.425 240.439 100.447C240.684 100.492 240.854 100.217 240.947 99.986C242.047 97.2534 242.834 94.4035 243.948 91.6769C245.051 88.9807 246.509 86.7881 248.467 84.6542C250.395 82.5546 252.492 80.3883 253.908 77.8843C257.183 72.0954 257.624 64.126 256.897 57.6676C256.742 56.2841 256.519 54.9067 256.23 53.5434C255.698 51.0353 254.942 48.5474 253.639 46.3406C251.639 42.9547 248.346 40.3515 244.59 39.1864C240.554 37.9344 233.101 37.9647 230.32 41.8038C229.907 42.3742 229.589 43.0902 229.767 43.7718C229.836 44.0328 229.972 44.2674 230.131 44.4858L230.135 44.4879Z" fill="#9B0A0A"/>
<path d="M239.559 51.446C239.955 50.0342 241.48 47.52 243.954 47.427C246.331 47.338 249.909 50.7502 246.96 56.4866C243.489 63.2382 238.808 57.6516 238.808 57.6516C238.808 57.6516 239.039 53.2887 239.557 51.4481L239.559 51.446Z" fill="#EC6060"/>
<path d="M240.361 53.6059L246.3 50.1491C246.3 50.1491 245.129 48.6766 243.331 49.0832C241.532 49.4897 240.408 51.5448 240.361 53.6059Z" fill="#FFF5A0"/>
<path d="M241.937 51.5918C241.937 51.5918 244.292 53.0441 243.616 56.0477C242.844 59.4822 240.06 56.3511 240.412 53.2807C240.649 51.2156 241.937 51.5918 241.937 51.5918Z" fill="#FFF5A0"/>
</svg>
