<svg width="28" height="28" viewBox="0 0 28 28" fill="none" xmlns="http://www.w3.org/2000/svg">
<g clip-path="url(#clip0_226_715)">
<path d="M27.4424 7.21672C27.2841 6.62103 26.9721 6.07738 26.5377 5.64015C26.1032 5.20292 25.5616 4.88747 24.9669 4.72536C22.7778 4.13672 14.0278 4.13672 14.0278 4.13672C14.0278 4.13672 5.27783 4.13672 3.08874 4.72536C2.49408 4.88747 1.95243 5.20292 1.518 5.64015C1.08357 6.07738 0.771589 6.62103 0.613287 7.21672C0.0278321 9.41535 0.027832 14.0004 0.027832 14.0004C0.027832 14.0004 0.0278321 18.5854 0.613287 20.784C0.771589 21.3797 1.08357 21.9233 1.518 22.3606C1.95243 22.7978 2.49408 23.1132 3.08874 23.2754C5.27783 23.864 14.0278 23.864 14.0278 23.864C14.0278 23.864 22.7778 23.864 24.9669 23.2754C25.5616 23.1132 26.1032 22.7978 26.5377 22.3606C26.9721 21.9233 27.2841 21.3797 27.4424 20.784C28.0278 18.5854 28.0278 14.0004 28.0278 14.0004C28.0278 14.0004 28.0278 9.41535 27.4424 7.21672Z" fill="white"/>
<path d="M11.1641 18.1637V9.83691L18.4822 14.0003L11.1641 18.1637Z" fill="#213170"/>
</g>
<defs>
<clipPath id="clip0_226_715">
<rect width="28" height="28" fill="white"/>
</clipPath>
</defs>
</svg>
